<?xml version="1.0" encoding="UTF-8"?>
<svg width="20px" height="20px" viewBox="0 0 20 20" version="1.1" xmlns="http://www.w3.org/2000/svg" xmlns:xlink="http://www.w3.org/1999/xlink">
    <!-- Generator: Sketch 46.2 (44496) - http://www.bohemiancoding.com/sketch -->
    <title>Facebook Copy</title>
    <desc>Created with Sketch.</desc>
    <defs></defs>
    <g id="Welcome" stroke="none" stroke-width="1" fill="none" fill-rule="evenodd">
        <g id="Desktop-HD-Copy-2" transform="translate(-1318.000000, -11.000000)" fill="#898989">
            <g id="Facebook-Copy" transform="translate(1318.000000, 11.000000)">
                <path d="M0,10 C0,4.47715223 4.47715223,0 10,0 C15.5228478,0 20,4.47715223 20,10 C20,15.5228478 15.5228478,20 10,20 C4.47715223,20 0,15.5228478 0,10 Z M10.7089813,15.5464486 L10.7089813,10.1059207 L12.2108049,10.1059207 L12.409829,8.23108461 L10.7089813,8.23108461 L10.7115329,7.29271111 C10.7115329,6.80372499 10.7579931,6.54171506 11.4603184,6.54171506 L12.3991974,6.54171506 L12.3991974,4.66666667 L10.8971611,4.66666667 C9.09297395,4.66666667 8.45794686,5.57616387 8.45794686,7.10565216 L8.45794686,8.23129693 L7.33333333,8.23129693 L7.33333333,10.106133 L8.45794686,10.106133 L8.45794686,15.5464486 L10.7089813,15.5464486 Z" id="Combined-Shape"></path>
            </g>
        </g>
    </g>
</svg>