<?xml version="1.0" encoding="utf-8"?>
<!-- Generator: Adobe Illustrator 21.0.2, SVG Export Plug-In . SVG Version: 6.00 Build 0)  -->
<svg version="1.1" id="Layer_1" xmlns="http://www.w3.org/2000/svg" xmlns:xlink="http://www.w3.org/1999/xlink" x="0px" y="0px"
	 viewBox="0 0 550 69" style="enable-background:new 0 0 550 69;" xml:space="preserve">
<style type="text/css">
	.st0{fill:#202020;}
	.st1{filter:url(#Adobe_OpacityMaskFilter);}
	.st2{fill:#FFFFFF;}
	.st3{mask:url(#mask-2);fill:#161616;}
</style>
<title>Artboard</title>
<desc>Created with Sketch.</desc>
<g id="Welcome">
	<g id="Artboard">
		<g id="Group-2" transform="translate(5.000000, 25.000000)">
			<g id="NoMansGrace-Logo" transform="translate(179.000000, 9.000000)">
				<g id="Group">
					<path id="Shape" class="st0" d="M26.2-13.6v29.8h-6.5l-5.9-8.3c-2.6-3.7-6.5-9.4-6.6-9.4h0c0,0,0,4.6,0,11.1v6.6H0.3v-29.8h6.5
						L13-5.1c1.9,2.6,6.3,9,6.3,9h0c0,0,0-5.3,0-10.7v-6.8H26.2L26.2-13.6z"/>
					<path id="Shape_1_" class="st0" d="M45.5-14.2c8.3,0,15,6.5,15,15.5c0,9-6.7,15.5-15,15.5c-8.3,0-15-6.5-15-15.5
						C30.6-7.7,37.3-14.2,45.5-14.2z M45.5,9.7c4.7,0,7.8-3.4,7.8-8.4c0-5-3.1-8.4-7.8-8.4c-4.7,0-7.8,3.4-7.8,8.4
						C37.8,6.2,40.9,9.7,45.5,9.7z"/>
					<path id="Shape_2_" class="st0" d="M103.9-13.6v29.8h-6.8V8.9c0-7.1,0.2-10.6,0.2-10.6h0c0,0-2.4,4.1-2.6,4.5l-3.4,6h-3.6
						l-3.4-6c-0.2-0.4-2.6-4.5-2.6-4.5h0c0,0,0.2,3.5,0.2,10.6v7.3H75v-29.8h6.5l5.4,9c2.1,3.5,2.4,4.3,2.5,4.3h0
						c0,0,0.4-0.8,2.5-4.3l5.4-9H103.9L103.9-13.6z"/>
					<path id="Shape_3_" class="st0" d="M126.9,11.5h-11.4l-1.7,4.7h-7.5l11.6-29.8h6.6L136,16.2h-7.5L126.9,11.5z M124.6,5.2
						l-2.1-5.8c-0.6-1.7-1.4-4.4-1.4-4.4h0c0,0-0.8,2.7-1.4,4.4l-2.1,5.8H124.6z"/>
					<path id="Shape_4_" class="st0" d="M164.2-13.6v29.8h-6.5l-5.9-8.3c-2.6-3.7-6.5-9.4-6.6-9.4h0c0,0,0,4.6,0,11.1v6.6h-6.9
						v-29.8h6.5l6.1,8.5c1.9,2.6,6.3,9,6.3,9h0c0,0,0-5.3,0-10.7v-6.8H164.2L164.2-13.6z"/>
					<path id="Shape_5_" class="st0" d="M174.7-7.9L174.1-8c-1.1-0.2-2.4-1.2-2.4-3c0-1.8,1.4-3.3,3.3-3.3c1.8,0,3.2,1.5,3.2,3.7
						c0,2.7-2.1,6-4.7,8.1h-2.5c1.4-0.9,3.1-3.9,3.1-5.2L174.7-7.9z"/>
					<path id="Shape_6_" class="st0" d="M198.6-4.3c-0.7-2.6-2.9-3.9-5-3.9s-3.3,1.1-3.3,2.3c0,2,2.9,2.7,6.4,4
						c4.3,1.6,8.8,4.1,8.8,9.2c0,5.5-4.5,9.3-11.3,9.3c-6,0-10.3-3.4-12.2-9l6.6-1.8c0.7,2.3,2.8,4.5,5.9,4.5c2.5,0,3.6-1.2,3.6-2.6
						c0-2.4-3.4-3-7.5-4.6c-3.5-1.4-7.5-3.3-7.5-8.6c0-4.6,4.5-8.9,10.8-8.9c5.5,0,9.9,3.5,11.3,8.2L198.6-4.3z"/>
					<path id="Shape_7_" class="st0" d="M242.4,14.4c-1.7,1.9-5,3-7.8,3c-8.3,0-15-6.5-15-15.5c0-9,6.7-15.5,15-15.5
						c5.6,0,10.5,3.1,13.1,7.9l-7.1,1.9c-1.4-1.7-3.8-2.8-6.1-2.8c-4.8,0-7.8,3.5-7.8,8.4c0,5.2,3.4,8.5,8.2,8.5
						c4.6,0,6.6-2.5,7.5-4.7v0h-7.6V0h13.5v16.9h-5.9C242.4,14.9,242.4,14.5,242.4,14.4L242.4,14.4L242.4,14.4z"/>
					<path id="Shape_8_" class="st0" d="M269.4,17l-5.4-9.7h-3.5V17h-6.9v-29.8h10.8c7.3,0,11.6,4.1,11.6,10.2c0,4-1.9,7-5.2,8.6
						l6.4,11H269.4z M260.5,0.9h4.8c2.5,0,3.5-1.9,3.5-3.5s-1-3.5-3.5-3.5h-4.8V0.9z"/>
					<path id="Shape_9_" class="st0" d="M299.2,12.3h-11.4l-1.7,4.7h-7.5l11.6-29.8h6.6L308.3,17h-7.5L299.2,12.3z M296.9,6
						l-2.1-5.8c-0.6-1.7-1.4-4.4-1.4-4.4h0c0,0-0.8,2.7-1.4,4.4L290,6H296.9z"/>
					<path id="Shape_10_" class="st0" d="M328.8-3.7c-1.3-1.7-3.8-2.8-6.1-2.8C318-6.5,315-3,315,1.9c0,5.2,3.3,8.3,7.8,8.3
						c2.8,0,5.4-1.4,6.6-3.5l7,1.9c-2.4,5.3-7.5,8.8-13.6,8.8c-8.3,0-15-6.5-15-15.5c0-9,6.7-15.5,15-15.5c5.7,0,10.6,3.2,13.1,7.9
						L328.8-3.7z"/>
					<polygon id="Shape_11_" class="st0" points="361.7,10.3 361.7,17 340.5,17 340.5,-12.8 361.5,-12.8 361.5,-6.2 347.4,-6.2 
						347.4,-1.3 358.4,-1.3 358.4,5 347.4,5 347.4,10.3 					"/>
				</g>
			</g>
			<g id="Logo">
				<g id="Clip-30">
				</g>
				<defs>
					<filter id="Adobe_OpacityMaskFilter" filterUnits="userSpaceOnUse" x="-9.1" y="-26" width="188" height="71.8">
						<feColorMatrix  type="matrix" values="1 0 0 0 0  0 1 0 0 0  0 0 1 0 0  0 0 0 1 0"/>
					</filter>
				</defs>
				<mask maskUnits="userSpaceOnUse" x="-9.1" y="-26" width="188" height="71.8" id="mask-2">
					<g class="st1">
						<path id="path-1" class="st2" d="M146,9.9c-0.2,0.7-0.4,1.3-1.1,1.7c-0.7,0.4-1.3,0.5-2-0.1c-0.4-0.3-0.5-0.3-0.7,0.2
							c-0.5,1.4-1,2.8-1.6,4.1c-0.4,1-0.8,2-1.3,2.9c-0.3,0.6-0.5,1.2-0.9,1.7c-0.8,1-1.6,2.1-2.6,2.9c-1.4,1.3-2.9,2.4-4.6,3.2
							c-1.8,0.8-3.7,1.3-5.7,1.5c-1.3,0.1-2.6,0.1-3.8,0c-0.8-0.1-1.6-0.5-2.4-0.7c-1.3-0.3-2.5-0.8-3.6-1.4c-1-0.5-2.1-1.2-2.8-2.1
							c-1-1.2-2-2.2-2.9-3.5c-1-1.4-1.9-2.8-2.6-4.4c-0.3-0.8-0.7-1.5-1.1-2.3c-0.3-0.7-0.5-1.4-0.9-2.1c-0.5-0.9-1.2-1.4-1.9-1.9
							c-0.1-0.1-0.2-0.2-0.3,0c-0.1,0.1,0,0.2,0,0.4c0.2,0.4,0.3,0.7,0.3,1.2c0,1.3-0.6,1.8-1.8,1.4c-0.1,0.3-0.2,0.7-0.3,1
							c-0.2,0.6-0.8,0.9-1.3,0.8c-0.6-0.1-1.2-0.6-1.3-1.1c-0.1-0.7,0.3-1.2,0.9-1c0.3,0.1,0.3,0,0.3-0.3c0-0.4-0.1-0.8-0.3-1.1
							c-0.3-0.4-0.7-0.7-1.1-1c-0.2-0.1-0.4-0.2-0.6,0c-0.2,0.1,0,0.3,0,0.5c0,0.5,0,1.1-0.1,1.6c-0.1,0.4-0.4,0.6-0.7,0.7
							c-0.4,0.1-0.6-0.1-0.8-0.4c-0.6-0.7-1.2-1.4-2-1.9c-0.4-0.2-0.9-0.4-1.4-0.5c-1-0.3-2.1-0.5-3.1-0.4c-0.1,0-0.2,0-0.3,0
							c-0.4-0.1-0.6,0.1-0.7,0.5c-0.2,0.6-0.5,1.2-0.8,1.8c-0.1,0.2-0.2,0.2-0.3,0c-0.2-0.3-0.4-0.6-0.5-1c-0.1-0.4-0.4-0.6-0.8-0.6
							c-1,0-2,0.1-2.9,0.2c-2.2,0.4-4.5,0.9-6.7,1.4c-1.3,0.3-2.5,0.3-3.8,0.6c-1.7,0.4-3.4,0.4-5.1,0.6c-1.5,0.2-3,0-4.4-0.1
							c-1.3,0-2.6-0.1-4-0.2c-1.2-0.1-2.5-0.1-3.7-0.4c-0.9-0.2-1.8-0.2-2.7-0.4c-0.9-0.2-1.8-0.2-2.7-0.3c-1.1-0.2-2.2-0.4-3.3-0.4
							C45.1,10.9,43,10.5,41,11c-1,0.2-2,0.7-2.8,1.5c-0.3,0.3-0.6,0.4-0.9,0.4c-0.4,0.1-0.7-0.2-0.8-0.7c-0.1-0.5-0.6-1-1-1.1
							c-0.9-0.1-1.5,0.2-1.7,0.8c-0.2,0.5-0.4,0.6-0.8,0.5c-1.3-0.2-2.6,0-3.9,0c-1.4,0-2.7,0-4.1,0.1c-0.4,0-0.8,0.1-1.1,0.2
							c-0.8,0.3-0.9,1.3-0.3,1.9c0.6,0.7,1.4,0.8,2.2,0.9c2.3,0.2,4.6-0.1,6.9,0.2c0.8,0.1,0.8,0.2,0.8,1.1
							c-0.1,0.9-0.1,1.8-0.1,2.8c0,0.6-0.2,0.9-0.8,1c-0.6,0-1.1,0-1.7,0c-0.3,0-0.4-0.2-0.4-0.6c0-1.1,0-1.1-1-1.1c-1,0-2,0-3,0
							c-0.4,0-0.5,0.1-0.5,0.5c-0.1,2-0.1,3.9-0.1,5.9c0,0.5,0.1,1,0.1,1.5c0,0.3,0.2,0.4,0.4,0.3c1.2-0.1,2.3-0.2,3.5-0.1
							c0.5,0.1,0.6,0,0.4-0.6c-0.1-0.3-0.1-0.6-0.1-0.9c0-0.3-0.1-0.5-0.4-0.4c-0.2,0-0.3,0-0.5,0c-0.8,0-0.9-0.1-1.1-1
							c-0.1-0.5,0.1-1,0-1.6c0-0.2,0.2-0.2,0.3-0.2c0.4,0,0.9-0.1,1.3,0c1,0.1,2.1,0,3.1-0.1c0.4,0,0.4,0.2,0.4,0.5
							c0,1.2,0,2.5,0,3.7c0,1.1,0.1,2.2,0,3.4c0,0.4-0.2,0.5-0.5,0.6c-1,0.1-2,0-3,0.1c-2.8,0.1-5.6,0-8.4,0.2c-0.6,0-1.2-0.1-1.8,0
							c-0.1,0-0.2,0-0.2-0.1c0-0.2,0.1-0.1,0.3-0.2c0,0,0.1,0,0.1,0c0.2,0,0.4,0.1,0.4-0.1c0.1-0.2-0.2-0.3-0.3-0.4
							c-0.2-0.1-0.1,0.3-0.4,0.3c-0.1-2.3-0.1-4.6-0.2-7c-0.3,0.7-0.5,1.3-0.7,1.8c-0.4,1.4-0.9,2.7-1.3,4.1
							c-0.1,0.4-0.2,0.7-0.3,1.1c-0.1,0.3-0.2,0.5-0.5,0.5c-0.3,0-0.2-0.3-0.3-0.5c-0.4-1.5-1-2.9-1.6-4.4c-0.3-0.9-0.6-1.8-1.1-2.7
							c-0.2,0.7-0.1,1.5-0.1,2.2c0,1.5,0.1,3,0.1,4.4c0,0.1,0,0.2,0,0.3c0,0.2,0.3,0.3,0.1,0.5c-0.2,0.1-0.4,0.3-0.6,0.2
							c-1.5-0.1-2.9,0.2-4.4,0.1c-0.5,0-0.8-0.2-1.1-0.7c-1.3-1.9-2.4-3.9-3.7-5.8c-0.1-0.1-0.1-0.2-0.3-0.3c0,0.5,0,1,0,1.4
							c0.2,1.7,0,3.4,0.1,5c0,0.3-0.1,0.4-0.3,0.4c-0.7,0-1.4,0-2.1,0c-0.4,0-0.4-0.3-0.4-0.7c0.1-2.2,0-4.5,0-6.7
							c0-2.3,0-4.5,0-6.8c0-0.7,0-0.7,0.7-0.8c2.5-0.1,5-0.1,7.5-0.1c0.3,0,0.6,0,0.9,0c1.1-0.2,1.5-0.8,1.5-2
							c0-0.5-0.6-1.1-1.1-1.1c-0.8,0-1.6,0-2.4,0C6.8,13,5.4,13,3.9,13c-0.6,0-1.1,0.2-1.6,0.5c-0.2,0.1-0.5,0.2-0.7,0.3
							c-0.2,0.1-0.4,0-0.4-0.3c0-0.6-0.3-0.7-0.8-0.7c-0.2,0-0.3,0-0.5,0C0,10,0,7.3,0,4.5c0.3-0.1,0.6-0.2,0.9-0.1
							c0.3,0.1,0.3-0.1,0.3-0.4c0.1-0.6,0.1-0.6,0.6-0.3c0.4,0.3,0.9,0.3,1.3,0.4C5.1,4.6,7.1,4.3,9,4.3c1.5,0,3.1,0,4.6-0.1
							c1.5-0.1,3,0,4.5-0.1c2-0.1,4,0,6-0.1c1.3-0.1,2.5,0,3.8-0.1c1.6-0.1,3.3,0,4.9-0.1c0.5,0,0.7,0.3,1,0.7
							c0.3,0.4,0.7,0.6,1.2,0.6c0.5-0.1,0.8-0.2,0.9-0.7c0.3-1,1.6-1.1,2.3-0.4c0.5,0.5,1.1,0.9,1.7,1c1.7,0.4,3.4,0.7,5.1,0.7
							c1.5,0,2.8-0.4,4.3-0.6c1.8-0.2,3.5-0.7,5.3-1c1.9-0.4,3.8-0.7,5.7-1c3.1-0.4,6.2-0.5,9.4-0.5c1.5,0,3,0.2,4.5,0.5
							c1.5,0.2,3.1,0.4,4.6,0.7c1,0.2,2,0.6,3,0.7c1,0.1,2,0.5,3,0.4c0.4,0,0.9,0,1.3,0c0.4-0.1,0.6-0.3,0.7-0.6
							c0.1-0.4,0.3-0.7,0.6-1C87.7,3,88,3,88.2,3.4c0.2,0.4,0.4,0.8,0.6,1.3c0.1,0.4,0.4,0.5,0.7,0.5c1,0,1.9,0,2.9-0.2
							c1.1-0.3,2.1-0.7,3.1-1.4c0.3-0.2,0.4-0.5,0.5-0.9c0.1-0.4,0.4-0.7,0.8-0.8c0.7-0.1,1,0.4,1,1.2c0,0.3,0,0.7,0,1
							c0,0.3,0.1,0.4,0.4,0.4c1.3,0,2.2-1.2,1.9-2.6c-0.1,0.1-0.2,0.1-0.4,0.2c-0.5,0.1-0.8-0.1-0.9-0.6c-0.1-0.5-0.1-1,0.4-1.3
							c0.5-0.3,0.9-0.3,1.4,0.1c0.1,0.1,0.3,0.2,0.4,0.3c0.3,0.5,0.7,0.9,1.4,0.9c0.3,0,0.6,0.4,0.7,0.7c0.2,0.5,0.3,1.1,0.2,1.7
							c0,0.2-0.3,0.5-0.4,0.8c-0.1,0.1-0.2,0.2-0.1,0.3c0.1,0.1,0.2,0,0.4,0c1.2-0.6,2.1-1.6,2.5-2.9c0.4-1.4,1-2.8,1.5-4.2
							c0.7-1.7,1.5-3.4,2.7-4.8c0.7-0.9,1.4-1.8,2.1-2.6c1-1.1,2-2,3.2-2.7c2.1-1.3,4.3-2.2,6.7-2.6c1.8-0.3,3.6-0.3,5.4,0
							c3.3,0.6,6.2,2.3,8.8,4.5c1.1,1,2.1,2.3,2.8,3.7c0.4,0.8,1,1.5,1.4,2.4c0.7,1.4,1.2,2.7,1.7,4.2c0.1,0.4,0.2,0.5,0.6,0.2
							c0.6-0.5,1.6-0.4,2.3,0.2c1.2,0.9,1.1,2.8,0,3.6c-0.2,0.2-0.2,0.3,0,0.5c1,0.9,1,1.8,0.2,2.9c-0.3,0.3,0,0.6,0.2,0.7
							c0.5,0.4,0.8,0.9,0.9,1.5C146,9.7,146,9.8,146,9.9z M104.3,8c0,0.2,0.1,0.2,0.2,0.2c1.3,1,2.4,2.2,3.1,3.7
							c0.2,0.5,0.4,1.1,0.8,1.6c1.9,2.8,3.9,5.4,6.9,6.8c1.3,0.6,2.7,0.9,4,1.2c0.8,0.1,1.6,0.1,2.5,0.2c1.1,0.1,2.3,0.1,3.4,0.1
							c2.2,0,4.4-0.5,6.5-1c2.5-0.7,4.8-1.8,6.7-3.8c1.3-1.3,2.4-2.9,3.2-4.6c0.4-1,0.7-2,1.2-3c0.3-0.5,0.6-1,1.1-1.2
							c0.4-0.2,0.4-0.4,0.1-0.7c-1.3-1.2-1.3-2.2,0.1-3.3c0.3-0.2,0.3-0.3,0-0.5c-0.9-0.5-1.5-1.3-1.9-2.3c-0.7-1.7-1.2-3.5-2.4-5
							c-1.2-1.5-2.6-2.8-4.2-3.8c-1.6-1-3.3-1.4-5.1-1.6c-3-0.5-6-0.5-9-0.1c-2.1,0.3-4.1,0.8-6.2,1.5c-3.3,1.2-5.2,3.7-6.5,7.1
							c-0.5,1.3-0.8,2.7-1.6,3.8c-0.9,1.1-1.7,2.3-3,3c1.3-0.3,2.3-1.1,3-2.4c0.1-0.2,0.1-0.3,0.3-0.3c0.2,0,0.3,0.2,0.3,0.3
							c-0.2,0.6,0,1.3-0.3,1.9c-0.1,0.2,0,0.3,0.2,0.3c0.6,0,1,0.3,1.5,0.6c0.2,0.1,0.3,0.1,0.3,0.3c0,0.3-0.2,0.3-0.3,0.3
							c-0.5,0.1-0.9,0.4-1.4,0.5c-0.3,0.1-0.3,0.2-0.2,0.5c0.2,0.4,0.3,0.7,0.3,1.2c0,0.3-0.1,0.5,0.2,0.7c0.1,0.1,0.1,0.3-0.1,0.4
							c-0.1,0.1-0.3,0.1-0.4-0.1c-0.3-0.6-0.9-1.1-1.4-1.6C105.5,8.4,105,7.9,104.3,8z M49.3,8.2c-0.4-1.4-1-1.4-1.6-0.7
							c-0.1,0.1-0.3,0.2-0.2,0.5c0,0.3,0.1,0.5,0.3,0.5C48.3,8.6,48.8,8.6,49.3,8.2z M57.6,9c-0.3-0.1-0.6-0.2-0.9,0
							c-0.1,0.1-0.2,0-0.2,0.5c0,0.4,0.1,0.4,0.2,0.5c0.5,0.7,1,0.1,1.5-0.2c0.1,0,0.1-0.2,0.1-0.5C58.4,9,58.3,9,58.2,9
							C58,9,57.8,9,57.6,9z"/>
					</g>
				</mask>
				<polygon id="Fill-29" class="st3" points="-9.1,45.7 178.9,45.7 178.9,-26 -9.1,-26 				"/>
			</g>
		</g>
	</g>
</g>
</svg>
