<?xml version="1.0" encoding="UTF-8"?>
<svg width="195px" height="210px" viewBox="0 0 195 210" version="1.1" xmlns="http://www.w3.org/2000/svg" xmlns:xlink="http://www.w3.org/1999/xlink">
    <!-- Generator: Sketch 46.2 (44496) - http://www.bohemiancoding.com/sketch -->
    <title>NoMansGrace-Logo</title>
    <desc>Created with Sketch.</desc>
    <defs></defs>
    <g id="Welcome" stroke="none" stroke-width="1" fill="none" fill-rule="evenodd">
        <g id="Desktop-HD-Copy-2" transform="translate(-624.000000, -239.000000)">
            <g id="Hero" transform="translate(1.000000, 152.000000)">
                <g id="NoMansGrace-Logo" transform="translate(623.000000, 87.000000)">
                    <g id="Group" fill-rule="nonzero" fill="#F8F8F8">
                        <path d="M93.9407797,0.836545977 L93.9407797,40.2113506 L85.017492,40.2113506 L76.941451,29.2422625 C73.3272106,24.2923084 68.0186334,16.8113266 67.9623593,16.8113266 L67.9059285,16.8113266 C67.8494976,16.8113266 67.9623593,22.8860431 67.9623593,31.4924119 L67.9623593,40.2113506 L58.4747629,40.2113506 L58.4747629,0.836545977 L67.3980506,0.836545977 L75.8126768,12.0862002 C78.3537902,15.4612682 84.3969092,23.955067 84.45334,23.955067 L84.5097709,23.955067 C84.5662018,23.955067 84.45334,16.9804157 84.45334,9.83667529 L84.45334,0.836545977 L93.9407797,0.836545977 L93.9407797,0.836545977 Z" id="Shape"></path>
                        <path d="M120.373155,0.0487126437 C131.723597,0.0487126437 140.928726,8.65508142 140.928726,20.5242605 C140.928726,32.392659 131.723597,40.9988716 120.373155,40.9988716 C109.020832,40.9988716 99.8730748,32.392659 99.8730748,20.5242605 C99.8730748,8.65523755 109.020832,0.0487126437 120.373155,0.0487126437 Z M120.373155,31.6613448 C126.811447,31.6613448 131.047367,27.1049952 131.047367,20.5241044 C131.047367,13.8860699 126.81176,9.38608333 120.373155,9.38608333 C113.990197,9.38608333 109.756471,13.8860699 109.756471,20.5241044 C109.756158,27.1048391 113.990197,31.6613448 120.373155,31.6613448 Z" id="Shape"></path>
                        <path d="M50.227705,61.7766877 L50.227705,101.151024 L40.9092444,101.151024 L40.9092444,91.5324626 C40.9092444,82.1952481 41.2484566,77.5828477 41.1920257,77.5828477 L41.1355949,77.5828477 C41.0793207,77.5828477 37.9165273,82.982613 37.5777854,83.5451504 L32.9466921,91.4206734 L28.0334445,91.4206734 L23.402508,83.5451504 C23.0637661,82.982613 19.9012862,77.5828477 19.8446986,77.5828477 L19.7882677,77.5828477 C19.7318368,77.5828477 20.071049,82.1952481 20.071049,91.5324626 L20.071049,101.151024 L10.7525884,101.151024 L10.7525884,61.7766877 L19.6757195,61.7766877 L27.0734928,73.7009808 C29.9539751,78.3702126 30.4057355,79.3830297 30.4623232,79.3830297 L30.518754,79.3830297 C30.5745579,79.3830297 31.0263183,78.3705249 33.9068006,73.7009808 L41.3048875,61.7766877 L50.227705,61.7766877 L50.227705,61.7766877 Z" id="Shape"></path>
                        <path d="M81.6297588,94.9638937 L65.9861817,94.9638937 L63.7272227,101.151024 L53.5055547,101.151024 L69.3182677,61.7766877 L78.2976728,61.7766877 L94.1103859,101.151024 L83.8887178,101.151024 L81.6297588,94.9638937 Z M78.5802974,86.6946102 L75.7564027,79.0451638 C74.9094695,76.795795 73.8926166,73.2517941 73.8361857,73.2517941 L73.7797548,73.2517941 C73.7231672,73.2517941 72.7064711,76.795795 71.8595378,79.0451638 L69.0361133,86.6946102 L78.5802974,86.6946102 Z" id="Shape"></path>
                        <path d="M132.854409,61.7766877 L132.854409,101.151024 L123.930651,101.151024 L115.854453,90.1825603 C112.240056,85.2321379 106.932576,77.7511561 106.875675,77.7511561 L106.818774,77.7511561 C106.762814,77.7511561 106.875675,83.8257165 106.875675,92.4322414 L106.875675,101.151024 L97.3876085,101.151024 L97.3876085,61.7766877 L106.310583,61.7766877 L114.725993,73.026342 C117.266636,76.4018784 123.309755,84.8945843 123.366656,84.8945843 L123.423557,84.8945843 C123.478891,84.8945843 123.366656,77.9200891 123.366656,70.776817 L123.366656,61.7766877 L132.854409,61.7766877 L132.854409,61.7766877 Z" id="Shape"></path>
                        <path d="M146.804277,69.5955354 L145.956873,69.4820287 C144.432769,69.2575134 142.682472,67.8512481 142.682472,65.4883726 C142.682472,63.0703831 144.65865,61.1006437 147.142548,61.1006437 C149.570957,61.1006437 151.547605,63.0700709 151.547605,66.0510661 C151.547605,69.5952232 148.668533,73.9259646 145.111194,76.7384952 L141.665932,76.7384952 C143.642267,75.5006944 145.956873,71.6203889 145.956873,69.8202069 L146.804277,69.5955354 Z" id="Shape"></path>
                        <path d="M179.72871,74.2638305 C178.768915,70.7765048 175.71914,69.1450996 172.895245,69.1450996 C170.07135,69.1450996 168.433288,70.5512088 168.433288,72.126251 C168.433288,74.7133295 172.387838,75.6702519 177.18791,77.4145393 C183.061736,79.551182 189.216777,82.869887 189.216777,89.6206475 C189.216777,96.820751 183.004522,101.938701 173.79955,101.938701 C165.554059,101.938701 159.68039,97.3825077 157.082689,90.0142519 L166.175583,87.5951695 C167.191965,90.5766331 170.016017,93.5574722 174.194723,93.5574722 C177.582926,93.5574722 179.163931,91.9827423 179.163931,90.0699904 C179.163931,86.9195939 174.532681,86.1322289 168.885362,83.9952739 C164.142034,82.1954042 158.663694,79.6077011 158.663694,72.6881638 C158.663694,66.5577088 164.875792,60.9891667 173.459397,60.9891667 C181.028187,60.9891667 187.014248,65.6017232 188.878191,71.7891657 L179.72871,74.2638305 Z" id="Shape"></path>
                        <path d="M31.3658441,158.884875 C29.0504542,161.360632 24.5323794,162.878687 20.6353577,162.878687 C9.28413183,162.878687 0.135590836,154.272318 0.135590836,142.403607 C0.135590836,130.535053 9.28413183,121.928684 20.6353577,121.928684 C28.3159124,121.928684 35.0362018,125.978391 38.5944815,132.391129 L28.9372789,134.922469 C27.0736495,132.672008 23.7415635,131.265898 20.6355145,131.265898 C14.0848312,131.265898 10.0186736,135.934974 10.0186736,142.403607 C10.0186736,149.32252 14.7057275,153.653261 21.2004502,153.653261 C27.5257235,153.653261 30.2930305,150.390763 31.4222749,147.465975 L31.4222749,147.410237 L21.0310008,147.410237 L21.0310008,139.816216 L39.4983159,139.816216 L39.4983159,162.09101 L31.3660008,162.09101 C31.3660008,159.503931 31.4221182,158.94155 31.4221182,158.884875 L31.3658441,158.884875 L31.3658441,158.884875 Z" id="Shape"></path>
                        <path d="M68.978742,162.09101 L61.6373995,149.265689 L56.780426,149.265689 L56.780426,162.09101 L47.2928296,162.09101 L47.2928296,122.716517 L62.0328859,122.716517 C71.9722428,122.716517 77.9583039,128.116439 77.9583039,136.216633 C77.9583039,141.503985 75.4170338,145.440809 70.8425281,147.578545 L79.5962098,162.09101 L68.978742,162.09101 Z M56.7802693,140.884772 L63.3314228,140.884772 C66.7196262,140.884772 68.0752211,138.354369 68.0752211,136.216477 C68.0752211,134.078585 66.7199397,131.54787 63.3314228,131.54787 L56.7802693,131.54787 L56.7802693,140.884772 Z" id="Shape"></path>
                        <path d="M109.416475,155.903723 L93.7718006,155.903723 L91.5128416,162.09101 L81.2910169,162.09101 L97.1038867,122.716517 L106.083292,122.716517 L121.895535,162.09101 L111.673867,162.09101 L109.416475,155.903723 Z M106.365446,147.634284 L103.542492,139.984837 C102.695088,137.735312 101.678236,134.191467 101.621334,134.191467 L101.565374,134.191467 C101.509413,134.191467 100.49256,137.735312 99.6451568,139.984837 L96.8217323,147.634284 L106.365446,147.634284 Z" id="Shape"></path>
                        <path d="M150.135579,134.922469 C148.32838,132.672008 144.938453,131.265898 141.833187,131.265898 C135.282974,131.265898 131.216346,135.93513 131.216346,142.403607 C131.216346,149.20995 135.678304,153.428122 141.833187,153.428122 C145.61672,153.428122 149.230961,151.51615 150.869023,148.81619 L160.469325,151.291167 C157.193513,158.265818 150.135579,162.878843 141.833187,162.878843 C130.480864,162.878843 121.332793,154.272474 121.332793,142.403607 C121.332793,130.535209 130.480864,121.92884 141.833187,121.92884 C149.62629,121.92884 156.290462,126.090805 159.792625,132.391129 L150.135579,134.922469 Z" id="Shape"></path>
                        <polygon id="Shape" points="194.864566 153.259501 194.864566 162.090697 165.780567 162.090697 165.780567 122.716205 194.526294 122.716205 194.526294 131.547401 175.267223 131.547401 175.267223 138.015878 190.345707 138.015878 190.345707 146.284693 175.267223 146.284693 175.267223 153.259501 194.864566 153.259501"></polygon>
                    </g>
                    <g id="Group" transform="translate(56.000000, 184.000000)">
                        <path d="M0.138325234,11.008974 C0.138325234,7.42316883 0.140680374,3.83719481 0.132986916,0.251051948 C0.132515888,0.0430519481 0.170983178,0.00202597403 0.36473271,0.00202597403 C28.1365458,0.00793506494 55.9083589,0.00793506494 83.680172,0.00202597403 C83.8736075,0.00202597403 83.9120748,0.0427142857 83.9117607,0.251051948 C83.9046953,4.78923377 83.9062654,9.32758442 83.9062654,13.8655974 C83.865286,13.4951818 83.698071,13.218974 83.4077607,13.0059091 C83.3000523,12.9267273 83.1717757,12.7928442 83.3155963,12.5986883 C83.7773607,11.9753636 83.7363813,11.4962208 83.1815103,10.9888831 C83.0742729,10.890961 83.0610841,10.8347403 83.1822953,10.736987 C83.7998131,10.2379221 83.8558654,9.21649351 83.1683215,8.69683117 C82.7242991,8.36153247 82.1563963,8.27694805 81.8313869,8.57645455 C81.6409346,8.75220779 81.5795439,8.69311688 81.5099888,8.47751948 C81.2474692,7.66341558 80.9174355,6.88375325 80.5313495,6.12620779 C80.2942654,5.66124675 79.9871551,5.25250649 79.7317009,4.80493506 C79.2900336,4.03033766 78.7593421,3.31736364 78.1057121,2.76309091 C76.6215028,1.50411688 74.9829533,0.565584416 73.0814131,0.222012987 C72.0470355,0.0352857143 71.0275738,0.0398441558 69.9942953,0.196012987 C68.6127701,0.404688312 67.3480598,0.950181818 66.1328075,1.65741558 C65.4485607,2.05568831 64.8602467,2.57906494 64.3129121,3.17301299 C63.8816075,3.64084416 63.504471,4.15493506 63.100643,4.64674026 C62.4441869,5.44581818 61.9549458,6.36003896 61.5743551,7.32541558 C61.2708561,8.09545455 60.9281047,8.84996104 60.6855252,9.65055844 C60.4492262,10.4307273 59.9279551,10.960013 59.2380561,11.2995325 C59.1708561,11.3326234 59.0942355,11.3895195 59.0317458,11.3115195 C58.9752224,11.2409481 59.0482318,11.1872597 59.0805757,11.128 C59.1586093,10.9826364 59.3082393,10.8200519 59.3189159,10.7084545 C59.3482766,10.3971299 59.287671,10.0687532 59.1818467,9.76907792 C59.1149607,9.57914286 58.9727103,9.36675325 58.7844561,9.37941558 C58.3980561,9.40524675 58.1856224,9.19235065 57.9923439,8.89048052 C57.9417869,8.81079221 57.8497794,8.76098701 57.7741009,8.70155844 C57.4676187,8.45962338 57.2671178,8.45371429 56.9720972,8.64719481 C56.6940336,8.82953247 56.7417645,9.11164935 56.7715963,9.37857143 C56.8073944,9.69749351 56.9739813,9.80942857 57.2642916,9.73497403 C57.3340037,9.71707792 57.3990056,9.67588312 57.4669907,9.64549351 C57.6685907,10.4602727 57.1091664,11.1111169 56.3910056,11.105039 C56.2531514,11.1038571 56.1633421,11.0314286 56.1757458,10.8561818 C56.1894056,10.6648961 56.1848523,10.4725974 56.1944299,10.280974 C56.2182953,9.80875325 55.9967551,9.54081818 55.6182056,9.59822078 C55.3881869,9.63316883 55.2605383,9.80250649 55.1766953,10.019961 C55.1083963,10.1975714 55.0459065,10.3778831 54.8956486,10.5012987 C54.3756336,10.9274286 53.7768,11.1561948 53.1451514,11.295987 C52.5989159,11.4168701 52.0437308,11.4023506 51.4901159,11.4155195 C51.2750131,11.4205844 51.1362168,11.3564286 51.0658766,11.1217532 C50.988,10.8617532 50.870557,10.618974 50.7338019,10.3866623 C50.600972,10.1611039 50.4728523,10.130039 50.2926056,10.3203117 C50.1451738,10.4768182 50.0211364,10.6518961 49.9583327,10.8739091 C49.8997682,11.0808961 49.7860935,11.1914805 49.5557607,11.2218701 C49.3001495,11.2556364 49.0492486,11.2085325 48.804628,11.2325065 C48.2103477,11.2910909 47.6515514,11.0928831 47.0794093,11.009987 C46.5049121,10.9267532 45.9465869,10.7182468 45.3731888,10.6181299 C44.4948785,10.4644935 43.6095028,10.3613377 42.7278953,10.2277922 C41.8618318,10.0964416 40.9979664,9.95512987 40.1198131,9.95698701 C38.3218991,9.96053247 36.5304224,10.0294156 34.7387888,10.2357273 C33.6431776,10.362013 32.5643664,10.5622468 31.4846131,10.7699091 C30.4708037,10.9647403 29.466415,11.232 28.4408299,11.3319481 C27.6209271,11.411974 26.8223776,11.6282468 25.9885009,11.6437792 C24.9880374,11.6621818 24.024471,11.4855844 23.0591776,11.2743766 C22.6894206,11.1933377 22.3618991,10.9843247 22.0817944,10.7003506 C21.6569271,10.268987 20.9042243,10.3687662 20.7426617,10.9009221 C20.647828,11.2122468 20.4834393,11.2801169 20.2121271,11.312026 C19.907843,11.3474805 19.7095402,11.2217013 19.5294505,10.9917532 C19.3795065,10.7997922 19.2443215,10.6052987 18.9551103,10.6260649 C18.0161944,10.6939351 17.0742953,10.6231948 16.1334953,10.6903896 C15.405443,10.7422208 14.6707963,10.684987 13.9427439,10.7361429 C12.7926505,10.817013 11.642086,10.7256753 10.4921495,10.7954026 C9.63833271,10.8472338 8.78247477,10.7651818 7.92520374,10.8276494 C7.05395888,10.8912987 6.17721869,10.8889351 5.30330467,10.8803247 C4.18634019,10.8695195 3.06545047,11.0218052 1.95225421,10.8090779 C1.69585794,10.7599481 1.42062056,10.7915195 1.19468411,10.610026 C0.938915888,10.4054026 0.8904,10.4238052 0.856014953,10.7658571 C0.842041121,10.9037922 0.824770093,11.0299091 0.663835514,10.9677792 C0.476209346,10.8941688 0.311663551,10.9775714 0.138325234,11.008974 Z" id="Shape"></path>
                        <path d="M83.9057944,13.9873247 C83.9057944,17.876013 83.9039103,21.7648701 83.9108187,25.6538961 C83.9111327,25.8548052 83.882243,25.9062987 83.6826841,25.9062987 C55.9089869,25.8998831 28.1354467,25.8998831 0.361592523,25.9062987 C0.162818692,25.9062987 0.132515888,25.8564935 0.133143925,25.6544026 C0.140209346,22.3123896 0.138011215,18.9705455 0.138011215,15.6285325 C0.232216822,15.6342727 0.328149533,15.6560519 0.419528972,15.6425455 C0.692097196,15.6027013 0.875641121,15.6595974 0.855229907,16.0161688 C0.846594393,16.1649091 0.936874766,16.2128571 1.06122617,16.1725065 C1.20488972,16.1259091 1.34776822,16.0750909 1.48703551,16.014987 C1.77593271,15.8905584 2.06451589,15.7684935 2.38183178,15.7598831 C3.21900561,15.7377662 4.05617944,15.7137922 4.89351028,15.6933636 C5.35370467,15.6825584 5.81374206,15.6746234 6.27393645,15.6717532 C6.54210841,15.6700649 6.9065271,15.9986104 6.89553645,16.2643506 C6.86884486,16.9021948 6.68765607,17.2729481 6.03685234,17.3615844 C5.86963738,17.3843766 5.69802617,17.3698571 5.52877009,17.3727273 C4.0992,17.3973766 2.6694729,17.4196623 1.2399028,17.449039 C0.876426168,17.4562987 0.855229907,17.486013 0.854915888,17.8706104 C0.853188785,19.1366753 0.853816822,20.4025714 0.855543925,21.6686364 C0.857114019,22.9235584 0.901861682,24.1778052 0.858841121,25.4325584 C0.852403738,25.6175974 0.887102804,25.7965584 1.10346168,25.7982468 C1.50744673,25.8016234 1.9119028,25.7892987 2.31620187,25.7747792 C2.43113271,25.7707273 2.49283738,25.7134935 2.48420187,25.5588442 C2.43223178,24.6206494 2.51214953,23.6790779 2.42186916,22.7408831 C2.39941682,22.5080649 2.41857196,22.2706883 2.41857196,21.9649351 C2.50115888,22.0664026 2.54119626,22.1060779 2.57165607,22.153013 C3.27490093,23.2385974 3.9462729,24.346974 4.66741682,25.4197273 C4.83635888,25.6712857 5.02335701,25.7741039 5.29357009,25.7948701 C6.13639626,25.8593636 6.97137196,25.645961 7.81498318,25.7204156 C7.93572336,25.7308831 8.08441121,25.6689221 8.18317009,25.5883896 C8.29354766,25.4987403 8.09650093,25.417026 8.12429159,25.3030649 C8.13810841,25.247013 8.11754019,25.1821818 8.11848224,25.1219091 C8.12978692,24.2914286 8.06180187,23.4636494 8.0489271,22.6343506 C8.04327477,22.244013 7.9715215,21.8459091 8.09210467,21.4304156 C8.35007103,21.9282987 8.51445981,22.4347922 8.70758131,22.9267662 C9.0248972,23.7364805 9.35744299,24.5406234 9.60206355,25.3810649 C9.6331514,25.4879351 9.59468411,25.6464675 9.76880748,25.6439351 C9.93523738,25.6412338 10.0170393,25.5390909 10.0553495,25.3695844 C10.1018243,25.1634416 10.1578766,24.9593247 10.2225645,24.7590909 C10.4684411,23.9983377 10.7160449,23.2380909 10.970871,22.4807143 C11.0781084,22.1624675 11.204815,21.8518182 11.3506766,21.463 C11.3833346,22.8217532 11.4139514,24.0987922 11.4450393,25.3868052 C11.6111551,25.3518571 11.5522766,25.1176883 11.6827514,25.2000779 C11.7464972,25.2404286 11.8893757,25.3152208 11.8598579,25.4318831 C11.8303402,25.548039 11.6989234,25.4989091 11.609585,25.5119091 C11.5817944,25.5157922 11.5532187,25.5093766 11.524957,25.5117403 C11.4630953,25.5164675 11.3726579,25.4938442 11.3806654,25.5997013 C11.3858467,25.6712857 11.4646654,25.6717922 11.5199327,25.6675714 C11.8559327,25.6437662 12.1897346,25.7001558 12.5280897,25.676013 C14.1336673,25.5605325 15.7433271,25.5937922 17.3509458,25.5421299 C17.9237159,25.5238961 18.4983701,25.5708312 19.0706692,25.4990779 C19.2515439,25.4764545 19.3225121,25.4318831 19.3402542,25.1882597 C19.3856299,24.5603766 19.3258093,23.9378961 19.3303626,23.3132208 C19.3349159,22.6252338 19.3232972,21.9369091 19.3126206,21.2485844 C19.3101084,21.0932597 19.2901682,20.9519481 19.0774206,20.9595455 C18.4864374,20.9806494 17.8962393,21.0314675 17.303372,20.9906104 C17.051215,20.9732208 16.7963888,20.9992208 16.5428187,21.0088442 C16.4583477,21.0122208 16.3352523,21.0213377 16.3599028,21.1395195 C16.4217645,21.4356494 16.3140561,21.7233377 16.3496972,22.0145714 C16.4118729,22.5230909 16.4707514,22.5764416 16.9552822,22.5767792 C17.0494879,22.5769481 17.1440075,22.5825195 17.2378991,22.5759351 C17.4038579,22.5646234 17.4812636,22.6345195 17.4751402,22.8215844 C17.4698019,22.9823117 17.4702729,23.1428701 17.5140785,23.3030909 C17.6032598,23.6294416 17.5819065,23.6623636 17.2763664,23.6297792 C16.598714,23.5566753 15.9254579,23.6321429 15.2512598,23.6822857 C15.1132486,23.6925844 15.036314,23.6540909 15.0221832,23.4950519 C14.9976897,23.2131039 14.9669159,22.9331818 14.9655028,22.6481948 C14.9590654,21.5467403 14.9491738,20.4456234 15.0176299,19.3451818 C15.0319178,19.1191169 15.0955065,19.0424675 15.2978916,19.0455065 C15.8723888,19.0537792 16.446886,19.0492208 17.0216972,19.0519221 C17.5669907,19.0542857 17.572957,19.0551299 17.5836336,19.645026 C17.5870879,19.8413766 17.6410991,19.9595584 17.8354766,19.9600649 C18.1557757,19.9610779 18.4768598,19.9737403 18.7957458,19.9524675 C19.0940636,19.9325455 19.2254804,19.7444675 19.2327028,19.4105195 C19.2440075,18.8947403 19.2388262,18.3771039 19.2832598,17.8645325 C19.3269084,17.3583766 19.3146617,17.305026 18.8419065,17.2548831 C17.5198879,17.1147532 16.1915888,17.2531948 14.8670579,17.1539221 C14.380486,17.1172857 13.9410168,17.0527922 13.5764411,16.6751169 C13.2329047,16.3185455 13.3233421,15.8027662 13.776,15.611987 C13.9793271,15.5263896 14.1944299,15.5041039 14.4118879,15.4889091 C15.1928523,15.4347143 15.9746019,15.4745584 16.7555664,15.4509221 C17.5077981,15.427961 18.261129,15.3425325 19.0111626,15.4325195 C19.2733682,15.4640909 19.4061981,15.4234026 19.4938093,15.1395974 C19.6029308,14.7852208 19.9458393,14.6457662 20.4704075,14.6857792 C20.7079626,14.7036753 20.9651439,14.9817403 21.0243364,15.2842857 C21.0786617,15.5615065 21.2543551,15.7141299 21.5011738,15.6818831 C21.6980636,15.6562208 21.8812935,15.5981429 22.0416,15.4502468 C22.5068187,15.0210779 23.049286,14.7490909 23.6470206,14.6118312 C24.8343252,14.3393377 26.0283813,14.5436234 27.2181981,14.5811039 C27.8451364,14.601026 28.4706617,14.7144805 29.0941458,14.8041299 C29.6141607,14.8787532 30.1549009,14.8441429 30.6530916,14.9738052 C31.1694953,15.108026 31.6918654,15.1098831 32.2068561,15.2106753 C32.8961271,15.3457403 33.6089495,15.3366234 34.3098393,15.4093896 C35.0678804,15.4882338 35.8270206,15.5177792 36.5880449,15.5442857 C37.4363664,15.5738312 38.2757383,15.6894805 39.1344224,15.5939221 C40.101129,15.4862078 41.0802393,15.4966753 42.0367402,15.2800649 C42.7541159,15.1174805 43.4884486,15.0921558 44.2078654,14.9248442 C45.4812112,14.6283766 46.7672748,14.3935325 48.0500411,14.1436623 C48.6056972,14.0356104 49.1674766,13.9852987 49.7345944,14.0042078 C49.9691664,14.0121429 50.130572,14.0953766 50.2075065,14.3457532 C50.2725084,14.5584805 50.383357,14.7392987 50.5224673,14.912013 C50.6209121,15.0342468 50.6331589,15.0258052 50.7091514,14.9025584 C50.9024299,14.5895455 51.0800075,14.2685974 51.1949383,13.9142208 C51.2670056,13.6927143 51.3860187,13.6035714 51.5989234,13.6527013 C51.6626692,13.6675584 51.7308112,13.6771818 51.794871,13.6699221 C52.4106617,13.599013 53.0098093,13.7175325 53.6007925,13.8753896 C53.8717907,13.9476494 54.146557,14.0229481 54.4007551,14.1608831 C54.8585944,14.4099091 55.2037009,14.7931558 55.5274542,15.2088182 C55.6346916,15.3464156 55.7581009,15.4740519 55.961428,15.4198571 C56.1605159,15.3671818 56.329615,15.2606494 56.3619589,15.0438701 C56.4048224,14.7563506 56.4013682,14.4602208 56.4101607,14.1676364 C56.4128299,14.0823766 56.3313421,13.9812468 56.4230355,13.9162468 C56.5263477,13.8428052 56.649286,13.8725195 56.7438056,13.9414026 C56.969585,14.1061818 57.1934804,14.2755195 57.3773383,14.4953377 C57.5159776,14.6612987 57.5703028,14.8630519 57.5624523,15.0843896 C57.5582131,15.2005455 57.5420411,15.2626753 57.3935103,15.2265455 C57.0105645,15.1335195 56.7879252,15.389974 56.8645458,15.8078312 C56.9143178,16.0811688 57.271514,16.3872597 57.5935402,16.433013 C57.8833794,16.474039 58.1986542,16.2835974 58.3204935,15.9751429 C58.3894206,15.8005714 58.4336972,15.6143506 58.4886505,15.4335325 C59.1462056,15.6786753 59.4916262,15.4007792 59.5085832,14.6557273 C59.5142355,14.4051818 59.4230131,14.2086623 59.3322617,13.998974 C59.3065121,13.9398831 59.2576822,13.8649221 59.3186019,13.8022857 C59.3796785,13.7396494 59.4465645,13.7918182 59.4985346,13.8271039 C59.9218318,14.1127662 60.3228336,14.4132857 60.597914,14.8915844 C60.8141159,15.2679091 60.9045533,15.6947143 61.0984598,16.0759351 C61.3145047,16.5007143 61.5573981,16.9138442 61.7330916,17.3573636 C62.0960972,18.2729351 62.6363664,19.0546234 63.2099215,19.8222987 C63.7275813,20.5151818 64.3322243,21.1170649 64.8960449,21.7611558 C65.351372,22.2814935 65.9415701,22.6517403 66.5297271,22.9394286 C67.1943477,23.2645974 67.8903701,23.5581948 68.6198355,23.7170649 C69.0800299,23.8173506 69.5116486,24.0511818 69.9837757,24.0881558 C70.7154393,24.1457273 71.4458467,24.1698701 72.1819065,24.1079091 C73.3173981,24.0125195 74.407828,23.7486364 75.4591626,23.279961 C76.4348187,22.8448831 77.2842393,22.2001169 78.1010019,21.4945714 C78.6607402,21.0107013 79.1203065,20.4251948 79.599028,19.8565714 C79.8387813,19.5715844 79.9620336,19.2278442 80.136,18.9080779 C80.421757,18.3821688 80.6177047,17.8127013 80.8692336,17.2707532 C81.2154393,16.524013 81.4931888,15.739961 81.7842841,14.9648571 C81.883514,14.7011429 81.9728523,14.6793636 82.1777495,14.8596753 C82.5503327,15.1877143 82.8765981,15.180961 83.2989533,14.9344675 C83.6561495,14.7235974 83.7831701,14.361961 83.9057944,13.9873247 Z" id="Shape"></path>
                        <path d="M83.9057944,13.9873247 C83.7831701,14.3622987 83.6559925,14.7235974 83.2969121,14.9334545 C82.874871,15.1799481 82.5482916,15.1867013 82.1757084,14.8584935 C81.9708112,14.6783506 81.8814729,14.7001299 81.782243,14.9636753 C81.4909907,15.7387792 81.2133981,16.523 80.8671925,17.2697403 C80.6156636,17.8116883 80.4197159,18.3811558 80.1339589,18.9070649 C79.9601495,19.227 79.8367402,19.5709091 79.5969869,19.8555584 C79.1182654,20.4241818 78.6585421,21.0096883 78.0989607,21.4935584 C77.2821981,22.1992727 76.4327776,22.8438701 75.4571215,23.2787792 C74.4056299,23.7476234 73.315357,24.0113377 72.1798654,24.1068961 C71.4438056,24.1688571 70.7133981,24.1445455 69.9817346,24.086974 C69.5096075,24.0498312 69.0779888,23.8161688 68.6176374,23.7158831 C67.888329,23.5571818 67.1926206,23.2632468 66.527686,22.9384156 C65.939529,22.6508961 65.3493308,22.2806494 64.8940037,21.7601429 C64.3301832,21.1160519 63.7255402,20.5138312 63.2078804,19.8212857 C62.6343252,19.0536104 62.093585,18.2719221 61.7310505,17.3563506 C61.555357,16.9128312 61.3124636,16.4997013 61.0964187,16.0747532 C60.9026692,15.6937013 60.8119178,15.2667273 60.5958729,14.8905714 C60.3209495,14.4122727 59.9199477,14.1119221 59.4966505,13.8260909 C59.4445234,13.7908052 59.3774804,13.7382987 59.3167178,13.8012727 C59.2557981,13.8639091 59.304628,13.9388701 59.3303776,13.997961 C59.421129,14.2073117 59.5123514,14.4038312 59.5066991,14.6547143 C59.489585,15.3995974 59.1441645,15.678 58.4867664,15.4325195 C58.4314991,15.6133377 58.3875364,15.7995584 58.3186093,15.9741299 C58.1967701,16.2825844 57.8814953,16.473026 57.5916561,16.4318312 C57.2696299,16.3860779 56.9127477,16.079987 56.8626617,15.8066494 C56.7860411,15.3886234 57.0086804,15.1325065 57.3916262,15.2255325 C57.540157,15.2616623 57.556329,15.1998701 57.5604112,15.0833766 C57.5687327,14.8618701 57.5140935,14.6601169 57.3754542,14.4943247 C57.1915963,14.2745065 56.9673869,14.1046623 56.7419215,13.9403896 C56.6474019,13.8715065 56.5244636,13.8417922 56.4211514,13.9150649 C56.3294579,13.9804026 56.4109458,14.0813636 56.4082766,14.1666234 C56.3994841,14.4592078 56.4032523,14.7553377 56.3600748,15.0428571 C56.3277308,15.2591299 56.1586318,15.3656623 55.9595439,15.4188442 C55.7562168,15.473039 55.6328075,15.3454026 55.5254131,15.2078052 C55.2018168,14.7921429 54.8567103,14.4088961 54.398871,14.1598701 C54.1445159,14.0217662 53.8697495,13.9462987 53.5989084,13.8743766 C53.0079252,13.7165195 52.4087776,13.598 51.7929869,13.6687403 C51.7289271,13.676 51.660785,13.6665455 51.5970393,13.6516883 C51.3839776,13.6025584 51.2649645,13.6911948 51.1930542,13.9132078 C51.0784374,14.2674156 50.9007028,14.5885325 50.7072673,14.9015455 C50.6311178,15.0246234 50.618871,15.0328961 50.5204262,14.911 C50.3814729,14.7384545 50.2704673,14.5574675 50.2054654,14.3447403 C50.1288449,14.0945325 49.9672822,14.010961 49.7327103,14.0033636 C49.1655925,13.9846234 48.6038131,14.0349351 48.048157,14.1428182 C46.7653907,14.3925195 45.4797981,14.6275325 44.2059813,14.924 C43.4865645,15.0913117 42.7523888,15.116974 42.0348561,15.2792208 C41.0781981,15.4958312 40.0992449,15.4857013 39.1326953,15.5930779 C38.2740112,15.6886364 37.4349533,15.572987 36.5861607,15.5434416 C35.8252935,15.5169351 35.0661533,15.4873896 34.3079551,15.4085455 C33.6072224,15.3356104 32.8944,15.3448961 32.205129,15.2098312 C31.6902953,15.1087013 31.1677682,15.1071818 30.6513645,14.972961 C30.1533308,14.8431299 29.6127477,14.8780779 29.0925757,14.8032857 C28.4687776,14.7136364 27.8435664,14.6001818 27.216471,14.5802597 C26.0266542,14.5424416 24.8324411,14.3381558 23.6452935,14.6108182 C23.0477159,14.7479091 22.5052486,15.0200649 22.0400299,15.4494026 C21.8797234,15.5971299 21.6963364,15.6553766 21.4994467,15.6808701 C21.252785,15.7129481 21.0770916,15.5601558 21.0226093,15.2834416 C20.9634168,14.9808961 20.7060785,14.703 20.4688374,14.6849351 C19.9442692,14.6452597 19.6015178,14.7847143 19.4920822,15.1387532 C19.404314,15.4230649 19.2717981,15.4632468 19.0095925,15.4318442 C18.2595589,15.3421948 17.506228,15.4274545 16.7539963,15.4500779 C15.9730318,15.4738831 15.1912822,15.4337013 14.4103178,15.4882338 C14.1927028,15.5034286 13.977757,15.5255455 13.7744299,15.6111429 C13.3214579,15.8020909 13.2310206,16.3178701 13.574871,16.6742727 C13.9391327,17.0521169 14.3789159,17.1164416 14.8654879,17.1532468 C16.1903327,17.2525195 17.5183178,17.1140779 18.8403364,17.2542078 C19.3130916,17.3043506 19.3253383,17.3577013 19.2815327,17.8638571 C19.2370991,18.3764286 19.2422804,18.8944026 19.2309757,19.4096753 C19.2239103,19.7437922 19.0923364,19.9318701 18.7941757,19.9516234 C18.4752897,19.9728961 18.1542056,19.9604026 17.8339065,19.9592208 C17.639529,19.9587143 17.5856748,19.8407013 17.5820636,19.6443506 C17.5713869,19.0544545 17.5654206,19.0536104 17.0199701,19.0510779 C16.4456299,19.0485455 15.8711327,19.0531039 15.2963215,19.0448312 C15.0939364,19.0416234 15.0301907,19.1187792 15.0160598,19.3443377 C14.9476037,20.4452857 14.9574953,21.5460649 14.9639327,22.6475195 C14.9656598,22.9325065 14.9961196,23.2124286 15.0206131,23.4943766 C15.0347439,23.6534156 15.1116785,23.6919091 15.2496897,23.6816104 C15.9238879,23.6314675 16.5971439,23.5563377 17.2746393,23.6289351 C17.5800224,23.6616883 17.6015327,23.6285974 17.5125084,23.3024156 C17.4687028,23.1425325 17.4682318,22.9818052 17.4735701,22.8207403 C17.4796935,22.6338442 17.4022879,22.5639481 17.236329,22.5750909 C17.1422804,22.5816753 17.0479178,22.5762727 16.9535551,22.5761039 C16.4687103,22.5757662 16.4101458,22.5224156 16.3481271,22.0138961 C16.312329,21.7224935 16.4201944,21.4348052 16.3583327,21.1386753 C16.3336822,21.0206623 16.4567776,21.0112078 16.5410916,21.0081688 C16.7945047,20.998039 17.0493308,20.9725455 17.3018019,20.9899351 C17.8943551,21.0307922 18.4847103,20.979974 19.0758505,20.9588701 C19.2884411,20.9512727 19.3083813,21.0925844 19.3110505,21.2479091 C19.3215701,21.9360649 19.3336598,22.6242208 19.3286355,23.3125455 C19.3245533,23.9372208 19.3842168,24.5602078 19.3386841,25.1877532 C19.3210991,25.431039 19.2501308,25.4759481 19.0690991,25.4985714 C18.496643,25.5701558 17.9221458,25.5232208 17.3493757,25.5414545 C15.741757,25.5932857 14.1319402,25.560026 12.5265196,25.6753377 C12.1881645,25.699987 11.8543626,25.6435974 11.5183626,25.6670649 C11.4630953,25.6709481 11.3842766,25.6706104 11.3789383,25.599026 C11.3710879,25.493 11.4615252,25.5161299 11.5233869,25.5110649 C11.5516486,25.5087013 11.5802243,25.5151169 11.6078579,25.5112338 C11.6970393,25.4985714 11.8284561,25.5475325 11.8582879,25.4312078 C11.8878056,25.3145455 11.7449271,25.2395844 11.6810243,25.1994026 C11.5507065,25.1173506 11.609585,25.351013 11.4434692,25.3861299 C11.4126953,24.0979481 11.3817645,22.8210779 11.3491065,21.4621558 C11.2030879,21.8514805 11.0765383,22.1621299 10.9693009,22.480039 C10.7144748,23.2374156 10.467185,23.9976623 10.2208374,24.7584156 C10.1561495,24.958987 10.0999402,25.1629351 10.0537794,25.3689091 C10.0154692,25.5384156 9.93319626,25.6405584 9.76723738,25.6432597 C9.59311402,25.645961 9.63158131,25.4872597 9.60049346,25.3803896 C9.35555888,24.5397792 9.02317009,23.7358052 8.70601121,22.9260909 C8.51304673,22.4341169 8.34850093,21.9276234 8.09053458,21.4297403 C7.96948037,21.8452338 8.04154766,22.2431688 8.04735701,22.6336753 C8.06023178,23.462974 8.12837383,24.2905844 8.11691215,25.1212338 C8.11597009,25.1815065 8.13653832,25.2461688 8.1227215,25.3022208 C8.09493084,25.4166883 8.29197757,25.4978961 8.1816,25.5877143 C8.08284112,25.6685844 7.93415327,25.7303766 7.81341308,25.7197403 C6.96964486,25.6454545 6.13514019,25.8586883 5.292,25.794026 C5.02131589,25.7732597 4.83478879,25.6709481 4.66584673,25.4190519 C3.9447028,24.3462987 3.27317383,23.2379221 2.57008598,22.1523377 C2.53978318,22.1054026 2.4999028,22.0652208 2.41684486,21.9642597 C2.41684486,22.270013 2.39784673,22.5073896 2.42014206,22.7402078 C2.51042243,23.6787403 2.43050467,24.6201429 2.48231776,25.5581688 C2.49111028,25.7128182 2.42940561,25.7700519 2.31447477,25.7741039 C1.91048972,25.7886234 1.50603364,25.8004416 1.10157757,25.7975714 C0.885218692,25.7958831 0.850676636,25.6167532 0.857114019,25.4318831 C0.899820561,24.1771299 0.855229907,22.9227143 0.853816822,21.667961 C0.85193271,20.4018961 0.851461682,19.136 0.853031776,17.8699351 C0.853502804,17.4851688 0.874699065,17.4556234 1.2381757,17.4483636 C2.66774579,17.418987 4.0974729,17.3967013 5.52704299,17.3718831 C5.69629907,17.3688442 5.86791028,17.3833636 6.03496822,17.3609091 C6.68592897,17.2722727 6.86711776,16.9013506 6.89380935,16.2636753 C6.90464299,15.9979351 6.54038131,15.6692208 6.27220935,15.6710779 C5.81185794,15.6739481 5.35197757,15.6815455 4.89178318,15.6926883 C4.05445234,15.7126104 3.2172785,15.7370909 2.38010467,15.7592078 C2.06278879,15.7676494 1.77420561,15.8895455 1.48530841,16.0141429 C1.34604112,16.0740779 1.20316262,16.1248961 1.05949907,16.1718312 C0.935147664,16.212013 0.845181308,16.1642338 0.853502804,16.0154935 C0.874071028,15.6589221 0.690370093,15.602026 0.417958879,15.6417013 C0.326579439,15.6552078 0.230646729,15.6334286 0.136441121,15.6276883 C0.136441121,14.0881169 0.136441121,12.5483766 0.136441121,11.0086364 C0.309779439,10.9770649 0.474168224,10.8936623 0.661480374,10.9664286 C0.822100935,11.0285584 0.839685981,10.9024416 0.853659813,10.7645065 C0.888201869,10.4226234 0.936560748,10.4040519 1.19232897,10.6086753 C1.41826542,10.79 1.6935028,10.7584286 1.94989907,10.8075584 C3.06309533,11.0202857 4.18398505,10.8678312 5.30094953,10.8788052 C6.17486355,10.8874156 7.05160374,10.8896104 7.9228486,10.8261299 C8.78011963,10.7636623 9.63566355,10.8453766 10.4897944,10.7937143 C11.6394168,10.7241558 12.7899813,10.8153247 13.9403888,10.7346234 C14.6684411,10.6834675 15.4030879,10.7407013 16.1311402,10.6888701 C17.0719402,10.622013 18.0136822,10.6925844 18.9527551,10.6247143 C19.2419664,10.6037792 19.3771514,10.7984416 19.5270953,10.9902338 C19.707028,11.2203506 19.9054879,11.3461299 20.209772,11.3106753 C20.4810841,11.2789351 20.6454729,11.2107273 20.7403065,10.8994026 C20.9018692,10.3675844 21.654572,10.2676364 22.0794393,10.6988312 C22.3592299,10.9831429 22.6867514,11.1918182 23.0568224,11.2726883 C24.0221159,11.4840649 24.9856822,11.6606623 25.9861458,11.6420909 C26.8201794,11.6265584 27.618572,11.4102857 28.4384748,11.3300909 C29.4640598,11.2301429 30.4684486,10.9628831 31.4822579,10.7682208 C32.5620112,10.5605584 33.6408224,10.3603247 34.7364336,10.234039 C36.5280673,10.0272208 38.3195439,9.95867532 40.1174579,9.9552987 C40.9960822,9.95344156 41.8596336,10.0947532 42.7255402,10.2261039 C43.6068336,10.3596494 44.4925234,10.4626364 45.3708336,10.6164416 C45.9442318,10.7167273 46.502557,10.9250649 47.0770542,11.0082987 C47.6495103,11.091026 48.2079925,11.2894026 48.8022729,11.2306494 C49.0472075,11.2065065 49.2977944,11.2539481 49.5534056,11.2201818 C49.7840523,11.1896234 49.8974131,11.0792078 49.9559776,10.8720519 C50.0184673,10.6502078 50.1425047,10.4747922 50.2902505,10.3186234 C50.4701832,10.1283506 50.5986168,10.1594156 50.7314467,10.384974 C50.8682019,10.6176234 50.9856449,10.8598961 51.0635215,11.1200649 C51.1338617,11.3550779 51.2726579,11.4190649 51.4877607,11.4136623 C52.0413757,11.4004935 52.5965607,11.4151818 53.1427963,11.2941299 C53.7744449,11.1543377 54.3732785,10.9257403 54.8932935,10.4994416 C55.0435514,10.3763636 55.1060411,10.1958831 55.1743402,10.0182727 C55.2580262,9.80081818 55.3859888,9.63148052 55.6158505,9.59653247 C55.9944,9.53912987 56.2159402,9.80706494 56.1920748,10.2792857 C56.1823402,10.4709091 56.1870505,10.6632078 56.1733907,10.8544935 C56.1609869,11.0295714 56.2507963,11.1021688 56.3886505,11.1033506 C57.1064972,11.1094286 57.6662355,10.4587532 57.4646355,9.64363636 C57.3966505,9.67453247 57.3316486,9.71538961 57.2619364,9.73311688 C56.9716262,9.8074026 56.8050393,9.69546753 56.7692411,9.37688312 C56.7397234,9.10996104 56.6916785,8.82784416 56.9697421,8.64550649 C57.2649196,8.45202597 57.4652636,8.45827273 57.7717458,8.6997013 C57.8471103,8.75946753 57.9391178,8.8091039 57.9899888,8.88862338 C58.1829533,9.19066234 58.3957009,9.4038961 58.7821009,9.37772727 C58.9703551,9.36506494 59.1126056,9.57745455 59.1794916,9.76738961 C59.2853159,10.0670649 59.3459215,10.3956104 59.3165607,10.7067662 C59.3061981,10.8183636 59.1562542,10.9809481 59.0782206,11.1261429 C59.0463477,11.1855714 58.9728673,11.2390909 59.0293907,11.3096623 C59.0918804,11.3878312 59.168815,11.3307662 59.2357009,11.2978442 C59.9256,10.9581558 60.446871,10.429039 60.6831701,9.6487013 C60.9257495,8.8481039 61.2686579,8.09325974 61.572,7.32372727 C61.9525907,6.35818182 62.4418318,5.44412987 63.0982879,4.64505195 C63.5018019,4.15341558 63.8792523,3.63932468 64.310557,3.17132468 C64.8575776,2.57754545 65.4458916,2.05450649 66.1304523,1.6558961 C67.3457047,0.948662338 68.610415,0.403168831 69.9919402,0.194324675 C71.0252187,0.0381558442 72.0446804,0.0337662338 73.0790579,0.220493506 C74.9805981,0.564064935 76.6191477,1.50242857 78.103357,2.7614026 C78.7568299,3.31584416 79.2876785,4.02864935 79.7293458,4.80341558 C79.9848,5.25081818 80.2919103,5.65955844 80.5289944,6.12451948 C80.9150804,6.88172727 81.245271,7.66155844 81.5076336,8.476 C81.5770318,8.69142857 81.6385794,8.75068831 81.8290318,8.57493506 C82.1537271,8.27525974 82.7219439,8.35984416 83.1659664,8.69531169 C83.8535103,9.21497403 83.7973009,10.2364026 83.1799402,10.7354675 C83.058886,10.8332208 83.0719178,10.8894416 83.1791551,10.9873636 C83.7337121,11.4947013 83.7750056,11.9738442 83.3132411,12.5971688 C83.1694206,12.7911558 83.2976972,12.925039 83.4054056,13.0043896 C83.6957159,13.2174545 83.8629308,13.4933247 83.9039103,13.8640779 C83.9057944,13.9061169 83.9057944,13.9466364 83.9057944,13.9873247 Z M59.8905869,12.9905455 C59.8880748,13.0739481 59.9403589,13.0881299 59.9770991,13.1148052 C60.6954168,13.6412208 61.3021009,14.2778831 61.7010617,15.1222078 C61.8371888,15.4105714 61.9488224,15.720039 62.126086,15.9768312 C63.1695701,17.4904026 64.3188785,18.8726234 65.9841196,19.6421558 C66.7088748,19.9769481 67.4650318,20.1484805 68.2313944,20.2778052 C68.6820112,20.3534416 69.1469159,20.3244026 69.602086,20.3750519 C70.2301234,20.4442727 70.8605159,20.4522078 71.4885533,20.4425844 C72.7256299,20.4236753 73.9331888,20.1819091 75.1380785,19.8797013 C76.5539888,19.5246494 77.8125757,18.8827532 78.9036336,17.845961 C79.648329,17.1385584 80.2330318,16.3013247 80.6712449,15.3541818 C80.9128822,14.8318182 81.0628262,14.2623506 81.3215776,13.7421818 C81.4660262,13.4514545 81.6458019,13.2157662 81.9193121,13.0827273 C82.1651888,12.9628571 82.1600075,12.8789481 81.9576224,12.6959351 C81.210572,12.0207792 81.2371065,11.5239091 82.0358131,10.9075065 C82.186385,10.7913506 82.2091514,10.7258442 82.0160299,10.6245455 C81.5125009,10.3606623 81.1857645,9.92592208 80.9646953,9.37080519 C80.5921121,8.43480519 80.2675738,7.47381818 79.6266617,6.68335065 C78.9508935,5.84983117 78.1694579,5.16133766 77.2751327,4.63509091 C76.390228,4.11424675 75.4131589,3.89425974 74.4175626,3.74923377 C72.7388187,3.50476623 71.0611738,3.47724675 69.3778766,3.68676623 C68.2058019,3.83280519 67.0706243,4.1264026 65.9443963,4.50880519 C64.1119402,5.13145455 63.0292037,6.53275325 62.3250168,8.35697403 C62.0557458,9.05458442 61.8861757,9.7971039 61.4050991,10.3881818 C60.9103626,10.9964805 60.430228,11.6165974 59.7475514,12.0023766 C60.4701084,11.8327013 61.0307888,11.4214286 61.3980336,10.7236494 C61.4434093,10.6368701 61.4817196,10.5588701 61.5840897,10.5786234 C61.6748411,10.596013 61.7644935,10.6645584 61.7264972,10.7626494 C61.5974355,11.0937273 61.7021607,11.4688701 61.5449944,11.791 C61.4978916,11.8879091 61.5302355,11.9615195 61.6288374,11.9584805 C61.9386168,11.9502078 62.1783701,12.145039 62.446228,12.260013 C62.5319551,12.2966494 62.6065346,12.3285584 62.6161121,12.4339091 C62.6289869,12.5745455 62.5151551,12.6032468 62.4311551,12.6201299 C62.159686,12.6744935 61.9218168,12.8276234 61.6594542,12.9052857 C61.5143776,12.9485065 61.4792075,13.0145195 61.5647776,13.1654545 C61.6728,13.3552208 61.7588411,13.559 61.7536598,13.7928312 C61.7503626,13.9299221 61.7232,14.0698831 61.8546168,14.1779351 C61.9266841,14.2373636 61.8902579,14.3278571 61.8199178,14.3828961 C61.7381159,14.4470519 61.6442243,14.439961 61.5961794,14.352 C61.403843,14.0013377 61.0950056,13.7686883 60.8425346,13.4804935 C60.5936748,13.1961818 60.295985,12.9606623 59.8905869,12.9905455 Z M27.905114,13.1532987 C27.6793346,12.7418571 27.3894953,12.7286883 27.0586766,12.9410779 C26.9938318,12.9826104 26.9115589,12.9967922 26.930557,13.1063636 C26.946886,13.2002338 27.0057645,13.244974 27.0900785,13.2476753 C27.3698692,13.2567922 27.6499738,13.2615195 27.905114,13.1532987 Z M32.7334654,12.9002208 C32.5513346,12.8801299 32.3558579,12.8568312 32.1614804,12.9037662 C32.1010318,12.9182857 32.0173458,12.9113636 32.0170318,13.0094545 C32.0170318,13.0822208 32.0831327,13.0965714 32.1351028,13.1175065 C32.4802093,13.2552727 32.8166804,13.1386104 33.1542505,13.0751299 C33.2004112,13.0663506 33.247985,13.0293766 33.2421757,12.9731558 C33.2333832,12.8919481 33.163357,12.9022468 33.1102879,12.9008961 C32.9892336,12.8981948 32.8680224,12.9002208 32.7334654,12.9002208 Z" id="Shape" fill="#FFFFFF" fill-rule="nonzero"></path>
                        <path d="M59.8905869,12.9905455 C60.295985,12.9603247 60.5936748,13.1961818 60.8426916,13.4806623 C61.0950056,13.7688571 61.404157,14.0015065 61.5964935,14.3521688 C61.6445383,14.4401299 61.7384299,14.4470519 61.8202318,14.3830649 C61.8902579,14.328026 61.9269981,14.2375325 61.8549308,14.1779351 C61.723514,14.0697143 61.7509907,13.9299221 61.7538168,13.793 C61.7589981,13.559 61.6728,13.3552208 61.5650916,13.1656234 C61.4790505,13.0146883 61.5146916,12.9486753 61.6597682,12.9054545 C61.9221308,12.8272857 62.160314,12.6746623 62.4314692,12.6202987 C62.5154692,12.6034156 62.6293009,12.5747143 62.6164262,12.4340779 C62.6068486,12.3287273 62.5322692,12.2968182 62.4465421,12.2601818 C62.1786841,12.1453766 61.9389308,11.9503766 61.6291514,11.9586494 C61.5305495,11.9615195 61.4982056,11.8880779 61.5453084,11.7911688 C61.7024748,11.4688701 61.5977495,11.0938961 61.7266542,10.7628182 C61.7648075,10.6647273 61.6751551,10.596013 61.5844037,10.5787922 C61.4823477,10.5593766 61.4437234,10.6373766 61.3983477,10.7238182 C61.0311028,11.4215974 60.4704224,11.8328701 59.7478654,12.0025455 C60.4305421,11.6171039 60.9102056,10.9966494 61.4054131,10.3883506 C61.8864897,9.79727273 62.0563738,9.05475325 62.3253308,8.35714286 C63.0292037,6.53292208 64.1122542,5.13162338 65.9447103,4.50897403 C67.0707813,4.1264026 68.2061159,3.83297403 69.3781907,3.68693506 C71.0614879,3.47758442 72.7388187,3.50493506 74.4177196,3.7494026 C75.4134729,3.89442857 76.3905421,4.11441558 77.2754467,4.63525974 C78.1694579,5.16150649 78.9512075,5.85 79.6269757,6.68351948 C80.2678879,7.47415584 80.5924262,8.43497403 80.9650093,9.37097403 C81.1860785,9.92609091 81.512815,10.3604935 82.0163439,10.6247143 C82.2093084,10.726013 82.1866991,10.7913506 82.0361271,10.9076753 C81.2374206,11.5237403 81.210886,12.0209481 81.9579364,12.6961039 C82.1603215,12.8791169 82.1655028,12.963026 81.9196262,13.0828961 C81.6464299,13.2159351 81.4663402,13.451961 81.3218916,13.7423506 C81.0634542,14.2625195 80.9131963,14.8318182 80.6715589,15.3543506 C80.2333458,16.3011558 79.648643,17.1383896 78.9039477,17.8461299 C77.8128897,18.8829221 76.5539888,19.5248182 75.1383925,19.8798701 C73.9335028,20.1820779 72.7259439,20.4238442 71.4887103,20.4427532 C70.8606729,20.4525455 70.2304374,20.4444416 69.6024,20.3750519 C69.1470729,20.3245714 68.6821682,20.3536104 68.2317084,20.277974 C67.4650318,20.1486494 66.7091888,19.9774545 65.9844336,19.6423247 C64.3191925,18.8727922 63.1695701,17.4905714 62.126243,15.977 C61.9491364,15.7202078 61.8375028,15.4107403 61.7015327,15.1223766 C61.302572,14.2780519 60.6957308,13.6415584 59.9774131,13.114974 C59.9406729,13.0881299 59.8883888,13.0739481 59.8905869,12.9905455 Z" id="Shape"></path>
                        <path d="M27.905114,13.2659815 C27.6499738,13.4093021 27.3700262,13.402818 27.0900785,13.391415 C27.0060785,13.3878376 26.946886,13.32881 26.930557,13.2042709 C26.9118729,13.0589379 26.9938318,13.0406036 27.0586766,12.9853771 C27.3893383,12.7043256 27.6791776,12.7215419 27.905114,13.2659815 Z" id="Shape"></path>
                        <path d="M32.7334654,12.9224258 C32.8677084,12.9224258 32.9892336,12.9185112 33.1102879,12.9243831 C33.163357,12.9269929 33.2333832,12.9064411 33.2421757,13.0640045 C33.247985,13.1719826 33.2004112,13.2437506 33.1542505,13.2610402 C32.8166804,13.3836982 32.4802093,13.6091149 32.1351028,13.3429209 C32.0831327,13.3024699 32.0170318,13.2747413 32.0170318,13.1341413 C32.0173458,12.9446086 32.1010318,12.9579836 32.1614804,12.9299288 C32.3558579,12.8385878 32.5513346,12.8836059 32.7334654,12.9224258 Z" id="Shape"></path>
                    </g>
                    <path d="M84.6759409,200.875612 C85.6820583,201.514976 86.5641481,199.513307 85.5521246,198.871622 C84.2934356,198.071605 83.0038265,197.813909 81.6287531,198.133359 C80.5270962,198.389197 80.9954133,200.626274 82.0908167,200.371364 C82.9715168,200.167065 83.8720197,200.364399 84.6759409,200.875612 Z" id="Shape" fill="#FEFEFE" fill-rule="nonzero"></path>
                    <path d="M91.4212548,201 C92.1929151,201 92.1929151,198 91.4212548,198 C90.1404183,198 88.8595817,198 87.5787452,198 C86.8070849,198 86.8070849,201 87.5787452,201 C88.8595817,201 90.1404183,201 91.4212548,201 Z" id="Shape" fill="#F2F2F2" fill-rule="nonzero"></path>
                </g>
            </g>
        </g>
    </g>
</svg>