<?xml version="1.0" encoding="utf-8"?>
<!-- Generator: Adobe Illustrator 21.0.2, SVG Export Plug-In . SVG Version: 6.00 Build 0)  -->
<svg version="1.1" id="Layer_1" xmlns="http://www.w3.org/2000/svg" xmlns:xlink="http://www.w3.org/1999/xlink" x="0px" y="0px"
	 viewBox="0 0 297 41.3" style="enable-background:new 0 0 297 41.3;" xml:space="preserve">
<style type="text/css">
	.st0{fill:#202020;}
	.st1{filter:url(#Adobe_OpacityMaskFilter);}
	.st2{fill:#FFFFFF;}
	.st3{mask:url(#mask-2);fill:#161616;}
</style>
<desc>Created with Sketch.</desc>
<g id="Welcome">
	<g id="Desktop-HD-Copy-2" transform="translate(-75.000000, -76.000000)">
		<g id="Group-2" transform="translate(75.000000, 76.000000)">
			<g id="NoMansGrace-Logo" transform="translate(98.000000, 5.000000)">
				<g id="Group">
					<path id="Shape" class="st0" d="M14.4,7.7V24h-3.6l-3.2-4.5c-1.5-2-3.6-5.1-3.6-5.1h0c0,0,0,2.5,0,6.1V24H0.2V7.7h3.6l3.4,4.6
						c1,1.4,3.4,4.9,3.5,4.9h0c0,0,0-2.9,0-5.8V7.7H14.4L14.4,7.7z"/>
					<path id="Shape_1_" class="st0" d="M25,7.4c4.6,0,8.3,3.6,8.3,8.5c0,4.9-3.7,8.5-8.3,8.5c-4.6,0-8.2-3.6-8.2-8.5
						C16.8,11,20.5,7.4,25,7.4z M25,20.5c2.6,0,4.3-1.9,4.3-4.6c0-2.7-1.7-4.6-4.3-4.6c-2.6,0-4.3,1.9-4.3,4.6
						C20.8,18.6,22.5,20.5,25,20.5z"/>
					<path id="Shape_2_" class="st0" d="M57.1,7.7V24h-3.7v-4c0-3.9,0.1-5.8,0.1-5.8h0c0,0-1.3,2.2-1.4,2.5L50.2,20h-2l-1.9-3.3
						c-0.1-0.2-1.4-2.5-1.4-2.5h0c0,0,0.1,1.9,0.1,5.8v4h-3.7V7.7h3.6l3,4.9c1.2,1.9,1.3,2.3,1.4,2.3h0c0,0,0.2-0.4,1.4-2.3l3-4.9
						H57.1L57.1,7.7z"/>
					<path id="Shape_3_" class="st0" d="M69.7,21.4h-6.3L62.5,24h-4.1l6.3-16.3h3.6L74.7,24h-4.1L69.7,21.4z M68.5,18l-1.1-3.2
						c-0.3-0.9-0.7-2.4-0.8-2.4h0c0,0-0.4,1.5-0.8,2.4L64.7,18H68.5z"/>
					<path id="Shape_4_" class="st0" d="M90.3,7.7V24h-3.6l-3.2-4.5c-1.5-2-3.6-5.1-3.6-5.1h0c0,0,0,2.5,0,6.1V24H76V7.7h3.6
						l3.4,4.6c1,1.4,3.4,4.9,3.5,4.9h0c0,0,0-2.9,0-5.8V7.7H90.3L90.3,7.7z"/>
					<path id="Shape_5_" class="st0" d="M96,10.9l-0.3,0c-0.6-0.1-1.3-0.7-1.3-1.6c0-1,0.8-1.8,1.8-1.8c1,0,1.8,0.8,1.8,2
						c0,1.5-1.2,3.3-2.6,4.4H94c0.8-0.5,1.7-2.1,1.7-2.9L96,10.9z"/>
					<path id="Shape_6_" class="st0" d="M109.2,12.8c-0.4-1.4-1.6-2.1-2.7-2.1c-1.1,0-1.8,0.6-1.8,1.2c0,1.1,1.6,1.5,3.5,2.2
						c2.4,0.9,4.8,2.3,4.8,5c0,3-2.5,5.1-6.2,5.1c-3.3,0-5.7-1.9-6.7-4.9l3.7-1c0.4,1.2,1.5,2.5,3.2,2.5c1.4,0,2-0.7,2-1.4
						c0-1.3-1.9-1.6-4.1-2.5c-1.9-0.7-4.1-1.8-4.1-4.7c0-2.5,2.5-4.8,5.9-4.8c3,0,5.4,1.9,6.2,4.5L109.2,12.8z"/>
					<path id="Shape_7_" class="st0" d="M133.2,23c-0.9,1-2.7,1.6-4.3,1.6c-4.6,0-8.2-3.6-8.2-8.5c0-4.9,3.7-8.5,8.2-8.5
						c3.1,0,5.8,1.7,7.2,4.3l-3.9,1c-0.7-0.9-2.1-1.5-3.3-1.5c-2.6,0-4.3,1.9-4.3,4.6c0,2.9,1.9,4.6,4.5,4.6c2.5,0,3.7-1.3,4.1-2.6
						v0h-4.2v-3.1h7.4v9.2h-3.3C133.2,23.3,133.3,23.1,133.2,23L133.2,23L133.2,23z"/>
					<path id="Shape_8_" class="st0" d="M148.1,24.4l-2.9-5.3h-2v5.3h-3.8V8.2h5.9c4,0,6.4,2.2,6.4,5.6c0,2.2-1,3.8-2.9,4.7l3.5,6
						H148.1z M143.2,15.7h2.6c1.4,0,1.9-1,1.9-1.9s-0.5-1.9-1.9-1.9h-2.6V15.7z"/>
					<path id="Shape_9_" class="st0" d="M164.5,21.9h-6.3l-0.9,2.6h-4.1l6.3-16.3h3.6l6.3,16.3h-4.1L164.5,21.9z M163.2,18.5
						l-1.1-3.2c-0.3-0.9-0.7-2.4-0.8-2.4h0c0,0-0.4,1.5-0.8,2.4l-1.1,3.2H163.2z"/>
					<path id="Shape_10_" class="st0" d="M180.8,13.1c-0.7-0.9-2.1-1.5-3.3-1.5c-2.6,0-4.3,1.9-4.3,4.6c0,2.8,1.8,4.6,4.3,4.6
						c1.5,0,3-0.8,3.6-1.9l3.9,1c-1.3,2.9-4.1,4.8-7.5,4.8c-4.6,0-8.2-3.6-8.2-8.5c0-4.9,3.7-8.5,8.2-8.5c3.1,0,5.8,1.7,7.2,4.3
						L180.8,13.1z"/>
					<polygon id="Shape_11_" class="st0" points="198.8,20.8 198.8,24.4 187.2,24.4 187.2,8.2 198.7,8.2 198.7,11.8 191,11.8 
						191,14.5 197,14.5 197,17.9 191,17.9 191,20.8 					"/>
				</g>
			</g>
			<g id="Logo">
				<g id="Clip-30">
				</g>
				<defs>
					<filter id="Adobe_OpacityMaskFilter" filterUnits="userSpaceOnUse" x="-5" y="1" width="103" height="39">
						<feColorMatrix  type="matrix" values="1 0 0 0 0  0 1 0 0 0  0 0 1 0 0  0 0 0 1 0"/>
					</filter>
				</defs>
				<mask maskUnits="userSpaceOnUse" x="-5" y="1" width="103" height="39" id="mask-2">
					<g class="st1">
						<path id="path-1" class="st2" d="M80,20.5c-0.1,0.4-0.2,0.7-0.6,0.9c-0.4,0.2-0.7,0.2-1.1-0.1c-0.2-0.2-0.3-0.2-0.4,0.1
							c-0.3,0.8-0.5,1.5-0.9,2.2c-0.2,0.5-0.4,1.1-0.7,1.6c-0.2,0.3-0.3,0.6-0.5,0.9c-0.5,0.6-0.9,1.1-1.4,1.6
							c-0.8,0.7-1.6,1.3-2.5,1.7c-1,0.5-2,0.7-3.1,0.8c-0.7,0.1-1.4,0-2.1,0c-0.5,0-0.9-0.3-1.3-0.4c-0.7-0.2-1.4-0.4-2-0.8
							c-0.6-0.3-1.1-0.6-1.6-1.1c-0.5-0.6-1.1-1.2-1.6-1.9c-0.5-0.7-1.1-1.5-1.4-2.4c-0.2-0.4-0.4-0.8-0.6-1.2
							c-0.2-0.4-0.3-0.8-0.5-1.2c-0.3-0.5-0.6-0.8-1.1-1c0,0-0.1-0.1-0.2,0c-0.1,0.1,0,0.1,0,0.2c0.1,0.2,0.2,0.4,0.2,0.6
							c0,0.7-0.3,1-1,0.8c-0.1,0.2-0.1,0.4-0.2,0.5c-0.1,0.3-0.4,0.5-0.7,0.4c-0.3,0-0.6-0.3-0.7-0.6c-0.1-0.4,0.1-0.7,0.5-0.6
							c0.1,0,0.2,0,0.2-0.1c0-0.2,0-0.4-0.2-0.6c-0.2-0.2-0.4-0.4-0.6-0.5c-0.1-0.1-0.2-0.1-0.3,0c-0.1,0.1,0,0.2,0,0.2
							c0,0.3,0,0.6,0,0.9c0,0.2-0.2,0.3-0.4,0.4c-0.2,0.1-0.3-0.1-0.4-0.2c-0.3-0.4-0.6-0.8-1.1-1c-0.2-0.1-0.5-0.2-0.8-0.3
							c-0.6-0.2-1.1-0.3-1.7-0.2c-0.1,0-0.1,0-0.2,0c-0.2,0-0.3,0-0.4,0.3c-0.1,0.3-0.3,0.7-0.5,1c-0.1,0.1-0.1,0.1-0.2,0
							c-0.1-0.2-0.2-0.3-0.3-0.5c-0.1-0.2-0.2-0.3-0.5-0.3c-0.5,0-1.1,0-1.6,0.1c-1.2,0.2-2.5,0.5-3.7,0.8c-0.7,0.2-1.4,0.2-2.1,0.3
							c-0.9,0.2-1.8,0.2-2.8,0.3c-0.8,0.1-1.6,0-2.4,0c-0.7,0-1.5-0.1-2.2-0.1c-0.7-0.1-1.3-0.1-2-0.2c-0.5-0.1-1-0.1-1.5-0.2
							c-0.5-0.1-1-0.1-1.5-0.2c-0.6-0.1-1.2-0.2-1.8-0.2c-1.1,0-2.3-0.2-3.4,0c-0.6,0.1-1.1,0.4-1.5,0.8c-0.2,0.1-0.3,0.2-0.5,0.2
							c-0.2,0-0.4-0.1-0.5-0.4c-0.1-0.3-0.3-0.6-0.5-0.6c-0.5,0-0.8,0.1-0.9,0.4c-0.1,0.3-0.2,0.3-0.5,0.3c-0.7-0.1-1.4,0-2.2,0
							c-0.7,0-1.5,0-2.2,0c-0.2,0-0.4,0-0.6,0.1c-0.4,0.2-0.5,0.7-0.2,1c0.3,0.4,0.8,0.4,1.2,0.5c1.3,0.1,2.5,0,3.8,0.1
							c0.5,0,0.5,0.1,0.4,0.6c0,0.5,0,1,0,1.5c0,0.3-0.1,0.5-0.4,0.5c-0.3,0-0.6,0-0.9,0c-0.2,0-0.2-0.1-0.2-0.3
							c0-0.6,0-0.6-0.5-0.6c-0.5,0-1.1,0-1.6,0c-0.2,0-0.3,0.1-0.3,0.3c-0.1,1.1-0.1,2.1,0,3.2c0,0.3,0,0.5,0.1,0.8
							c0,0.2,0.1,0.2,0.2,0.2c0.6,0,1.3-0.1,1.9-0.1c0.3,0,0.3,0,0.2-0.3c0-0.2,0-0.3,0-0.5c0-0.2-0.1-0.2-0.2-0.2
							c-0.1,0-0.2,0-0.3,0c-0.5,0-0.5-0.1-0.6-0.5c0-0.3,0.1-0.6,0-0.8c0-0.1,0.1-0.1,0.2-0.1c0.2,0,0.5,0,0.7,0c0.6,0,1.1,0,1.7,0
							c0.2,0,0.2,0.1,0.2,0.3c0,0.7,0,1.3,0,2c0,0.6,0.1,1.2,0,1.8c0,0.2-0.1,0.3-0.3,0.3c-0.5,0.1-1.1,0-1.6,0
							c-1.5,0.1-3.1,0-4.6,0.1c-0.3,0-0.6,0-1,0c-0.1,0-0.1,0-0.1-0.1c0-0.1,0.1-0.1,0.1-0.1c0,0,0.1,0,0.1,0c0.1,0,0.2,0,0.2-0.1
							s-0.1-0.2-0.2-0.2c-0.1-0.1-0.1,0.1-0.2,0.2c0-1.3-0.1-2.5-0.1-3.8c-0.1,0.4-0.3,0.7-0.4,1c-0.2,0.7-0.5,1.5-0.7,2.2
							c-0.1,0.2-0.1,0.4-0.2,0.6c0,0.2-0.1,0.3-0.3,0.3c-0.2,0-0.1-0.2-0.2-0.3c-0.2-0.8-0.6-1.6-0.9-2.4c-0.2-0.5-0.3-1-0.6-1.5
							c-0.1,0.4,0,0.8,0,1.2c0,0.8,0.1,1.6,0.1,2.4c0,0.1,0,0.1,0,0.2c0,0.1,0.2,0.2,0.1,0.3c-0.1,0.1-0.2,0.1-0.4,0.1
							c-0.8-0.1-1.6,0.1-2.4,0.1c-0.3,0-0.4-0.1-0.6-0.4c-0.7-1-1.3-2.1-2-3.2c0,0-0.1-0.1-0.1-0.2c0,0.3,0,0.5,0,0.8
							c0.1,0.9,0,1.8,0.1,2.7c0,0.2,0,0.2-0.2,0.2c-0.4,0-0.8,0-1.2,0c-0.2,0-0.2-0.2-0.2-0.4c0-1.2,0-2.4,0-3.7c0-1.2,0-2.5,0-3.7
							c0-0.4,0-0.4,0.4-0.4c1.4,0,2.7,0,4.1-0.1c0.2,0,0.3,0,0.5,0c0.6-0.1,0.8-0.4,0.8-1.1c0-0.3-0.3-0.6-0.6-0.6
							c-0.4,0-0.9,0-1.3,0c-0.8,0-1.6,0-2.4,0.1c-0.3,0-0.6,0.1-0.9,0.2c-0.1,0.1-0.3,0.1-0.4,0.2c-0.1,0-0.2,0-0.2-0.2
							c0-0.3-0.2-0.4-0.4-0.4c-0.1,0-0.2,0-0.3,0c0-1.5,0-3,0-4.5c0.2,0,0.3-0.1,0.5,0c0.2,0.1,0.2-0.1,0.2-0.2
							c0-0.3,0.1-0.3,0.3-0.2c0.2,0.2,0.5,0.1,0.7,0.2c1.1,0.2,2.1,0.1,3.2,0.1c0.8,0,1.7,0,2.5-0.1c0.8-0.1,1.6,0,2.5,0
							c1.1-0.1,2.2,0,3.3-0.1c0.7,0,1.4,0,2.1,0c0.9-0.1,1.8,0,2.7-0.1c0.3,0,0.4,0.2,0.5,0.4c0.2,0.2,0.4,0.3,0.7,0.3
							c0.3,0,0.4-0.1,0.5-0.4c0.2-0.5,0.9-0.6,1.3-0.2c0.3,0.3,0.6,0.5,0.9,0.6c0.9,0.2,1.8,0.4,2.8,0.4c0.8,0,1.6-0.2,2.3-0.3
							c1-0.1,1.9-0.4,2.9-0.5c1-0.2,2.1-0.4,3.1-0.5c1.7-0.2,3.4-0.3,5.1-0.3c0.8,0,1.7,0.1,2.5,0.3c0.8,0.1,1.7,0.2,2.5,0.4
							c0.5,0.1,1.1,0.3,1.6,0.4c0.5,0.1,1.1,0.3,1.6,0.2c0.2,0,0.5,0,0.7,0c0.2,0,0.3-0.1,0.4-0.3c0.1-0.2,0.2-0.4,0.3-0.5
							c0.2-0.2,0.3-0.2,0.4,0.1c0.1,0.2,0.2,0.5,0.3,0.7C48.7,18,48.8,18,49,18c0.5,0,1.1,0,1.6-0.1c0.6-0.1,1.2-0.4,1.7-0.8
							c0.1-0.1,0.2-0.3,0.3-0.5c0.1-0.2,0.2-0.4,0.4-0.4c0.4-0.1,0.6,0.2,0.5,0.7c0,0.2,0,0.4,0,0.6c0,0.2,0.1,0.2,0.2,0.2
							c0.7,0,1.2-0.6,1-1.4c-0.1,0-0.1,0.1-0.2,0.1c-0.3,0.1-0.4,0-0.5-0.3c0-0.3-0.1-0.5,0.2-0.7c0.3-0.2,0.5-0.2,0.8,0.1
							c0.1,0.1,0.2,0.1,0.2,0.2c0.2,0.3,0.4,0.5,0.8,0.5c0.2,0,0.3,0.2,0.4,0.4c0.1,0.3,0.2,0.6,0.1,0.9c0,0.1-0.2,0.3-0.2,0.4
							c0,0.1-0.1,0.1,0,0.2c0.1,0.1,0.1,0,0.2,0c0.7-0.3,1.2-0.8,1.4-1.6c0.2-0.8,0.6-1.5,0.8-2.3c0.4-0.9,0.8-1.8,1.5-2.6
							c0.4-0.5,0.7-1,1.2-1.4c0.5-0.6,1.1-1.1,1.7-1.5c1.2-0.7,2.4-1.2,3.7-1.4c1-0.2,2-0.2,2.9,0c1.8,0.3,3.4,1.2,4.8,2.5
							c0.6,0.5,1.1,1.2,1.6,2c0.2,0.4,0.5,0.8,0.8,1.3c0.4,0.7,0.7,1.5,0.9,2.3c0.1,0.2,0.1,0.3,0.3,0.1c0.3-0.3,0.9-0.2,1.3,0.1
							c0.7,0.5,0.6,1.5,0,2c-0.1,0.1-0.1,0.1,0,0.2c0.5,0.5,0.6,1,0.1,1.6c-0.1,0.2,0,0.3,0.1,0.4c0.3,0.2,0.4,0.5,0.5,0.8
							C80,20.4,80,20.5,80,20.5z M57.1,19.5c0,0.1,0,0.1,0.1,0.1c0.7,0.5,1.3,1.2,1.7,2c0.1,0.3,0.2,0.6,0.4,0.9
							c1,1.5,2.2,2.9,3.8,3.7c0.7,0.3,1.5,0.5,2.2,0.6c0.4,0.1,0.9,0,1.3,0.1c0.6,0.1,1.2,0.1,1.9,0.1c1.2,0,2.4-0.3,3.6-0.6
							c1.4-0.4,2.6-1,3.7-2c0.7-0.7,1.3-1.6,1.7-2.5c0.2-0.5,0.4-1.1,0.6-1.6c0.1-0.3,0.3-0.5,0.6-0.7c0.2-0.1,0.2-0.2,0-0.4
							c-0.7-0.7-0.7-1.2,0.1-1.8c0.1-0.1,0.2-0.2,0-0.3c-0.5-0.3-0.8-0.7-1-1.3c-0.4-0.9-0.7-1.9-1.3-2.7c-0.7-0.8-1.4-1.5-2.3-2.1
							c-0.9-0.5-1.8-0.7-2.8-0.9c-1.6-0.2-3.3-0.3-4.9-0.1c-1.2,0.1-2.3,0.4-3.4,0.8c-1.8,0.6-2.9,2-3.6,3.9c-0.3,0.7-0.4,1.4-0.9,2
							c-0.5,0.6-1,1.2-1.6,1.6c0.7-0.2,1.3-0.6,1.6-1.3c0-0.1,0.1-0.2,0.2-0.1c0.1,0,0.2,0.1,0.1,0.2c-0.1,0.3,0,0.7-0.2,1
							c0,0.1,0,0.2,0.1,0.2c0.3,0,0.5,0.2,0.8,0.3c0.1,0,0.2,0.1,0.2,0.2c0,0.1-0.1,0.2-0.2,0.2c-0.3,0.1-0.5,0.2-0.8,0.3
							c-0.1,0-0.2,0.1-0.1,0.3c0.1,0.2,0.2,0.4,0.2,0.6c0,0.1,0,0.3,0.1,0.4c0.1,0.1,0,0.2,0,0.2c-0.1,0.1-0.2,0.1-0.2,0
							c-0.2-0.4-0.5-0.6-0.7-0.9C57.8,19.7,57.5,19.5,57.1,19.5z M27,19.6c-0.2-0.7-0.5-0.8-0.9-0.4c-0.1,0.1-0.2,0.1-0.1,0.3
							c0,0.2,0.1,0.2,0.2,0.3C26.5,19.8,26.7,19.8,27,19.6z M31.6,20.1c-0.1-0.1-0.3-0.1-0.5,0c0,0-0.1,0-0.1,0.3
							c0,0.2,0.1,0.2,0.1,0.3c0.3,0.4,0.6,0.1,0.8-0.1c0,0,0.1-0.1,0.1-0.3c0-0.2-0.1-0.2-0.1-0.2C31.8,20.1,31.7,20.1,31.6,20.1z"
							/>
					</g>
				</mask>
				<polygon id="Fill-29" class="st3" points="-5,40 98,40 98,1 -5,1 				"/>
			</g>
		</g>
	</g>
</g>
</svg>
